<?xml version="1.0" encoding="utf-8"?>
<!-- Generator: Adobe Illustrator 25.4.1, SVG Export Plug-In . SVG Version: 6.00 Build 0)  -->
<svg version="1.1" id="Layer_1" xmlns="http://www.w3.org/2000/svg" xmlns:xlink="http://www.w3.org/1999/xlink" x="0px" y="0px"
	 viewBox="0 0 325.1 112.6" style="enable-background:new 0 0 325.1 112.6;" xml:space="preserve">
<style type="text/css">
	.st0{fill:#FFFFFF;}
	.st1{fill:#FF483C;}
</style>
<g>
	<g>
		<path class="st0" d="M0.9,2.2H10v73.1H0.9V2.2z"/>
		<path class="st0" d="M38.5,2.2l6.1,73.1h-9.2l-0.8-9.2h-6.9l-0.8,9.2h-9.2L24,2.2L38.5,2.2z M28.6,57h5.3l-2.7-31.8L28.6,57z"/>
		<path class="st0" d="M78.3,2.2v73.1h-8.9l-7.8-33.5v33.5h-9.2V2.2h9.3l7.5,32v-32H78.3z"/>
		<path class="st0" d="M116.8,66.1c1,0,1.5-0.5,1.5-1.5V2.2h9.2v65.5c0,2.1-0.8,3.9-2.2,5.4c-1.5,1.5-3.3,2.2-5.4,2.2h-9.2v-9.2
			C110.7,66.1,116.8,66.1,116.8,66.1z"/>
		<path class="st0" d="M155.7,2.2l6.1,73.1h-9.2l-0.8-9.2H145l-0.8,9.2h-9.2l6.1-73.1C141.2,2.2,155.7,2.2,155.7,2.2z M145.8,57h5.3
			l-2.7-31.8L145.8,57z"/>
		<path class="st0" d="M189.3,2.2c1.3,0,2.3,0.5,3.2,1.4c0.9,0.9,1.4,2,1.4,3.2v19.8h-9.2V12.9c0-1-0.5-1.5-1.5-1.5h-3.1
			c-1,0-1.5,0.5-1.5,1.5v51.8c0,1,0.5,1.5,1.5,1.5h3.1c1,0,1.5-0.5,1.5-1.5V50.9h9.2v19.8c0,1.3-0.5,2.3-1.4,3.2
			c-0.9,0.9-2,1.3-3.2,1.3h-15.2c-1.3,0-2.3-0.4-3.2-1.3c-0.9-0.9-1.3-2-1.3-3.2v-64c0-1.3,0.4-2.3,1.3-3.2c0.9-0.9,2-1.4,3.2-1.4
			L189.3,2.2L189.3,2.2z"/>
		<path class="st0" d="M217.1,2.2h9.2v25.9c0,3.5-1.2,6.5-3.5,9.1c2.4,2.6,3.5,5.7,3.5,9.2v28.9h-9.2V46.3c0-1.3-0.4-2.3-1.3-3.2
			c-0.9-0.9-2-1.3-3.3-1.3H211v33.5h-9.2V2.2h9.2v30.5h1.5c1.3,0,2.4-0.4,3.3-1.3c0.9-0.9,1.3-2,1.3-3.2V2.2z"/>
		<path class="st0" d="M250.9,2.2c2.1,0,3.9,0.8,5.4,2.2c1.5,1.5,2.2,3.3,2.2,5.4v16.8h-9.2V12.9c0-1-0.5-1.5-1.5-1.5h-3.1
			c-1,0-1.5,0.5-1.5,1.5V26c0,0.3,0.1,0.6,0.3,0.9l12.7,16.5c1.5,1.9,2.2,4.1,2.2,6.5v17.7c0,2.1-0.8,3.9-2.2,5.4
			c-1.5,1.5-3.3,2.2-5.4,2.2h-9.2c-2.1,0-3.9-0.8-5.4-2.2c-1.5-1.5-2.2-3.2-2.2-5.4V50.9h9.2v13.8c0,1,0.5,1.5,1.5,1.5h3.1
			c1,0,1.5-0.5,1.5-1.5V49.9c0-0.3-0.1-0.6-0.3-0.9l-12.7-16.5c-1.5-1.9-2.2-4.1-2.2-6.5V9.8c0-2.1,0.8-3.9,2.2-5.4
			c1.5-1.5,3.2-2.2,5.4-2.2C241.7,2.2,250.9,2.2,250.9,2.2z"/>
		<path class="st0" d="M283.1,2.2c2.1,0,3.9,0.8,5.4,2.2c1.5,1.5,2.2,3.3,2.2,5.4v57.9c0,2.1-0.8,3.9-2.2,5.4
			c-1.5,1.5-3.3,2.2-5.4,2.2H274c-2.1,0-3.9-0.8-5.4-2.2c-1.5-1.5-2.2-3.2-2.2-5.4V9.8c0-2.1,0.8-3.9,2.2-5.4
			c1.5-1.5,3.2-2.2,5.4-2.2L283.1,2.2z M280.1,66.1c1,0,1.5-0.5,1.5-1.5V12.9c0-1-0.5-1.5-1.5-1.5H277c-1,0-1.5,0.5-1.5,1.5v51.8
			c0,1,0.5,1.5,1.5,1.5H280.1z"/>
		<path class="st0" d="M324.5,2.2v73.1h-8.9l-7.8-33.5v33.5h-9.2V2.2h9.3l7.5,32v-32H324.5z"/>
	</g>
	<g>
		<path class="st1" d="M9.3,86.8c-0.8-0.4-1.8-0.6-3-0.6H4.2H2.8H0v24.4h2.8h1.4h2.1c1.2,0,2.2-0.2,3-0.6c0.8-0.4,1.5-1.1,1.9-1.9
			c0.4-0.8,0.7-1.8,0.7-2.9V91.6c0-1.1-0.2-2.1-0.7-2.9C10.8,87.9,10.1,87.2,9.3,86.8z M7.6,104.6c0,0.6-0.2,1.1-0.5,1.4
			c-0.3,0.3-0.7,0.5-1.3,0.5H4.2V90.1h1.7c0.6,0,1,0.2,1.3,0.5c0.3,0.3,0.5,0.8,0.5,1.4V104.6z"/>
		<polygon class="st1" points="19.7,86.1 17.9,86.1 17.9,110.6 19.7,110.6 22.1,110.6 28.7,110.6 28.7,106.5 22.1,106.5 22.1,100.5 
			27.9,100.5 27.9,96.4 22.1,96.4 22.1,90.2 28.7,90.2 28.7,86.1 22.1,86.1 		"/>
		<path class="st1" d="M44.6,98.1c-0.6-0.4-1.3-0.9-2.2-1.4c0,0,0,0-0.1,0c0,0,0,0-0.1,0c-0.1-0.1-0.3-0.1-0.4-0.2
			c-0.1-0.1-0.3-0.1-0.4-0.2c-0.6-0.3-1.2-0.6-1.5-0.8c-0.4-0.2-0.7-0.5-0.9-0.8c-0.2-0.3-0.4-0.7-0.4-1.2v-1.6c0-0.6,0.2-1,0.5-1.3
			c0.3-0.3,0.8-0.5,1.4-0.5c0.6,0,1,0.2,1.3,0.5c0.3,0.4,0.5,0.8,0.5,1.5v1.4l4.1-0.1v-1.4c0-1.3-0.2-2.3-0.7-3.2
			c-0.5-0.9-1.2-1.6-2-2.1c-0.9-0.5-2-0.7-3.2-0.7c-1.3,0-2.4,0.2-3.3,0.7c-0.9,0.5-1.6,1.2-2.1,2c-0.5,0.9-0.7,2-0.7,3.2v1.3
			c0,1.2,0.2,2.2,0.6,3c0.4,0.8,1,1.5,1.6,2c0.6,0.5,1.4,1,2.3,1.4l0.2,0.1c0,0,0.1,0,0.1,0.1c0,0,0.1,0,0.1,0.1
			c0.7,0.3,1.2,0.6,1.6,0.9c0.4,0.2,0.7,0.5,1,0.9c0.3,0.3,0.4,0.7,0.4,1.2v2.1c0,0.6-0.2,1.1-0.5,1.4c-0.3,0.3-0.8,0.5-1.4,0.5
			c-0.6,0-1.1-0.2-1.4-0.5c-0.3-0.4-0.5-0.8-0.5-1.5v-1.3l-4.1,0v1.3c0,1.3,0.2,2.3,0.7,3.2c0.5,0.9,1.2,1.6,2.1,2.1
			c0.9,0.5,2,0.7,3.3,0.7c1.3,0,2.4-0.2,3.3-0.7c0.9-0.5,1.6-1.2,2.1-2.1c0.5-0.9,0.7-2,0.7-3.2v-2c0-1.2-0.2-2.2-0.6-2.9
			C45.7,99.1,45.2,98.5,44.6,98.1z"/>
		<rect x="52.6" y="86.1" class="st1" width="4.2" height="24.4"/>
		<path class="st1" d="M68.5,101.4h2v3.3c0,0.4-0.1,0.7-0.2,1c-0.2,0.3-0.4,0.5-0.7,0.6c-0.3,0.1-0.6,0.2-1,0.2
			c-0.4,0-0.7-0.1-1-0.2c-0.3-0.1-0.5-0.3-0.7-0.6c-0.2-0.3-0.2-0.6-0.2-0.9V92.2c0-0.4,0.1-0.8,0.2-1.1c0.1-0.3,0.4-0.6,0.6-0.7
			c0.3-0.2,0.6-0.3,1-0.3c0.3,0,0.6,0.1,0.9,0.2c0.3,0.2,0.4,0.4,0.6,0.7c0.1,0.3,0.2,0.6,0.2,1v1.9h4.3V92c0-1.3-0.2-2.4-0.7-3.3
			c-0.5-0.9-1.2-1.6-2-2.1c-0.9-0.5-2-0.7-3.2-0.7c-1.3,0-2.4,0.2-3.3,0.7c-0.9,0.5-1.6,1.2-2.1,2.2c-0.5,0.9-0.7,2.1-0.7,3.4v12.7
			c0,1.2,0.2,2.3,0.7,3.2c0.5,0.9,1.2,1.6,2.1,2c0.9,0.5,2,0.7,3.3,0.7c1.3,0,2.4-0.2,3.3-0.7c0.9-0.5,1.6-1.2,2.1-2.1
			c0.5-0.9,0.7-2,0.7-3.3v-7.3h-6.1V101.4z"/>
		<polygon class="st1" points="89.1,101.1 83.8,86.1 80.6,86.1 80.6,110.5 84.4,110.5 84.4,96.4 89.6,110.5 92.9,110.5 92.9,86.1 
			89.1,86.1 		"/>
		<polygon class="st1" points="115.8,92.5 111.9,92.5 111.9,97.3 108.9,97.3 108.9,101.3 111.9,101.3 111.9,106.1 115.8,106.1 
			115.8,101.3 118.9,101.3 118.9,97.3 115.8,97.3 		"/>
		<path class="st1" d="M144.1,86.8c-0.8-0.4-1.8-0.6-3-0.6H139h-1.4h-2.8v24.4h2.8h1.4h2.1c1.2,0,2.2-0.2,3-0.6
			c0.8-0.4,1.5-1.1,1.9-1.9c0.4-0.8,0.7-1.8,0.7-2.9V91.6c0-1.1-0.2-2.1-0.7-2.9C145.6,87.9,144.9,87.2,144.1,86.8z M142.4,104.6
			c0,0.6-0.2,1.1-0.5,1.4c-0.3,0.3-0.7,0.5-1.3,0.5H139V90.1h1.7c0.6,0,1,0.2,1.3,0.5c0.3,0.3,0.5,0.8,0.5,1.4V104.6z"/>
		<polygon class="st1" points="154.5,86.1 152.7,86.1 152.7,110.6 154.5,110.6 156.9,110.6 163.5,110.6 163.5,106.5 156.9,106.5 
			156.9,100.5 162.7,100.5 162.7,96.4 156.9,96.4 156.9,90.2 163.5,90.2 163.5,86.1 156.9,86.1 		"/>
		<polygon class="st1" points="175.4,103 173.1,86.1 168.7,86.1 173.2,110.6 177.7,110.6 182.2,86.1 177.8,86.1 		"/>
		<polygon class="st1" points="189.4,86.1 187.5,86.1 187.5,110.6 189.4,110.6 191.7,110.6 198.4,110.6 198.4,106.5 191.7,106.5 
			191.7,100.5 197.6,100.5 197.6,96.4 191.7,96.4 191.7,90.2 198.4,90.2 198.4,86.1 191.7,86.1 		"/>
		<polygon class="st1" points="207.9,86.1 203.7,86.1 203.7,110.6 205.4,110.6 207.9,110.6 214.2,110.6 214.2,106.6 207.9,106.6 		
			"/>
		<path class="st1" d="M229.3,86.6c-0.9-0.4-2.1-0.7-3.4-0.7c-1.3,0-2.4,0.2-3.4,0.7s-1.6,1.1-2.1,2c-0.5,0.9-0.7,1.9-0.7,3.1v13.4
			c0,1.2,0.2,2.2,0.7,3.1s1.2,1.5,2.1,2c0.9,0.5,2.1,0.7,3.4,0.7c1.3,0,2.4-0.2,3.4-0.7c0.9-0.5,1.6-1.1,2.1-2
			c0.5-0.9,0.7-1.9,0.7-3.1V91.6c0-1.2-0.2-2.2-0.7-3.1C230.9,87.7,230.2,87,229.3,86.6z M227.9,104.5c0,0.4-0.1,0.8-0.2,1.1
			c-0.2,0.3-0.4,0.6-0.7,0.7c-0.3,0.2-0.7,0.3-1.1,0.3c-0.4,0-0.8-0.1-1.1-0.3c-0.3-0.2-0.5-0.4-0.7-0.7c-0.2-0.3-0.2-0.7-0.2-1.1
			V92.1c0-0.4,0.1-0.8,0.2-1.1c0.2-0.3,0.4-0.6,0.7-0.7c0.3-0.2,0.7-0.3,1.1-0.3c0.4,0,0.8,0.1,1.1,0.3c0.3,0.2,0.5,0.4,0.7,0.7
			c0.2,0.3,0.2,0.7,0.2,1.1V104.5z"/>
		<path class="st1" d="M247.7,86.8c-0.9-0.4-1.9-0.6-3.1-0.6h-2.2h-2.2h-1.9v24.4h4.2v-9.5h2.2c1.2,0,2.2-0.2,3.1-0.6
			c0.9-0.4,1.5-1,2-1.8c0.5-0.8,0.7-1.8,0.7-2.9v-4.1c0-1.2-0.2-2.1-0.7-3C249.2,87.8,248.5,87.2,247.7,86.8z M246.1,95.1
			c0,0.4-0.1,0.8-0.2,1.1c-0.1,0.3-0.3,0.5-0.6,0.7c-0.2,0.2-0.5,0.2-0.9,0.2h-2.1v-7h2.1c0.3,0,0.6,0.1,0.9,0.2
			c0.2,0.2,0.4,0.4,0.6,0.7c0.1,0.3,0.2,0.7,0.2,1.1V95.1z"/>
		<polygon class="st1" points="264.6,99.4 260.5,86.1 256.5,86.1 256.5,110.6 260.3,110.6 260.3,96 263.5,106.2 265.6,106.2 
			268.9,95.4 268.9,110.6 272.6,110.6 272.6,86.1 268.7,86.1 		"/>
		<polygon class="st1" points="280.5,86.1 278.7,86.1 278.7,110.6 280.5,110.6 282.8,110.6 289.5,110.6 289.5,106.5 282.8,106.5 
			282.8,100.5 288.7,100.5 288.7,96.4 282.8,96.4 282.8,90.2 289.5,90.2 289.5,86.1 282.8,86.1 		"/>
		<polygon class="st1" points="303.4,101.1 298.1,86.1 294.8,86.1 294.8,110.5 298.7,110.5 298.7,96.4 303.9,110.5 307.2,110.5 
			307.2,86.1 303.4,86.1 		"/>
		<polygon class="st1" points="325.1,86.1 312.8,86.1 312.8,90.1 316.9,90.1 316.9,110.6 321,110.6 321,90.1 325.1,90.1 		"/>
	</g>
</g>
</svg>
