<?xml version="1.0" encoding="utf-8"?>
<!-- Generator: Adobe Illustrator 27.5.0, SVG Export Plug-In . SVG Version: 6.00 Build 0)  -->
<svg version="1.0" id="Layer_1" xmlns="http://www.w3.org/2000/svg" xmlns:xlink="http://www.w3.org/1999/xlink" x="0px" y="0px"
	 viewBox="0 0 325.1 112.6" style="enable-background:new 0 0 325.1 112.6;" xml:space="preserve">
<style type="text/css">
	.st0{fill:#FFFFFF;}
	.st1{fill:#FF483C;}
</style>
<g>
	<g>
		<path class="st0" d="M6.2,3.8h8.8v70.7H6.2V3.8z"/>
		<path class="st0" d="M42.6,3.8l5.9,70.7h-8.8l-0.7-8.8h-6.6l-0.7,8.8h-8.8l5.9-70.7L42.6,3.8z M33,56.8h5.1l-2.6-30.7L33,56.8z"/>
		<path class="st0" d="M81.1,3.8v70.7h-8.6L65,42v32.4h-8.8V3.8h8.9l7.3,30.9V3.8H81.1z"/>
		<path class="st0" d="M118.3,65.6c1,0,1.5-0.5,1.5-1.4V3.8h8.8v63.3c0,2-0.7,3.8-2.2,5.2c-1.4,1.4-3.2,2.2-5.2,2.2h-8.8v-8.8
			C112.4,65.6,118.3,65.6,118.3,65.6z"/>
		<path class="st0" d="M155.9,3.8l5.9,70.7H153l-0.7-8.8h-6.6l-0.7,8.8H136l5.9-70.7C141.9,3.8,155.9,3.8,155.9,3.8z M146.3,56.8
			h5.1l-2.6-30.7L146.3,56.8z"/>
		<path class="st0" d="M188.5,3.8c1.2,0,2.3,0.4,3.1,1.3c0.9,0.9,1.3,1.9,1.3,3.1v19.1h-8.8V14.1c0-1-0.5-1.5-1.5-1.5h-3
			c-1,0-1.4,0.5-1.4,1.5v50.1c0,1,0.5,1.4,1.4,1.4h3c1,0,1.5-0.5,1.5-1.4V50.9h8.8v19.2c0,1.2-0.4,2.3-1.3,3.1
			c-0.9,0.9-1.9,1.3-3.1,1.3h-14.7c-1.2,0-2.3-0.4-3.1-1.3c-0.9-0.9-1.3-1.9-1.3-3.1V8.2c0-1.2,0.4-2.3,1.3-3.1
			c0.9-0.9,1.9-1.3,3.1-1.3L188.5,3.8L188.5,3.8z"/>
		<path class="st0" d="M215.3,3.8h8.8v25.1c0,3.4-1.1,6.3-3.4,8.8c2.3,2.5,3.4,5.5,3.4,8.8v28h-8.8v-28c0-1.2-0.4-2.3-1.3-3.1
			c-0.9-0.9-1.9-1.3-3.2-1.3h-1.4v32.4h-8.8V3.8h8.8v29.5h1.4c1.2,0,2.3-0.4,3.2-1.3c0.9-0.9,1.3-1.9,1.3-3.1V3.8z"/>
		<path class="st0" d="M248,3.8c2,0,3.7,0.7,5.2,2.2c1.4,1.4,2.2,3.2,2.2,5.2v16.2h-8.8V14.1c0-1-0.5-1.5-1.5-1.5h-3
			c-1,0-1.4,0.5-1.4,1.5v12.7c0,0.3,0.1,0.6,0.3,0.9l12.3,16c1.4,1.8,2.2,3.9,2.2,6.3v17.2c0,2-0.7,3.8-2.2,5.2
			c-1.4,1.4-3.2,2.2-5.2,2.2h-8.8c-2,0-3.8-0.7-5.2-2.2c-1.4-1.4-2.2-3.1-2.2-5.2V50.9h8.8v13.3c0,1,0.5,1.4,1.4,1.4h3
			c1,0,1.5-0.5,1.5-1.4V49.9c0-0.3-0.1-0.6-0.3-0.9l-12.3-16c-1.4-1.8-2.1-3.9-2.1-6.3V11.1c0-2,0.7-3.7,2.2-5.2
			c1.4-1.4,3.1-2.2,5.2-2.2C239.1,3.8,248,3.8,248,3.8z"/>
		<path class="st0" d="M279.2,3.8c2,0,3.7,0.7,5.2,2.2s2.2,3.2,2.2,5.2v56c0,2-0.7,3.8-2.2,5.2c-1.4,1.4-3.2,2.2-5.2,2.2h-8.8
			c-2,0-3.8-0.7-5.2-2.2c-1.4-1.4-2.2-3.1-2.2-5.2v-56c0-2,0.7-3.7,2.2-5.2c1.4-1.4,3.1-2.2,5.2-2.2L279.2,3.8z M276.2,65.6
			c1,0,1.5-0.5,1.5-1.4V14.1c0-1-0.5-1.5-1.5-1.5h-3c-1,0-1.4,0.5-1.4,1.5v50.1c0,1,0.5,1.4,1.4,1.4H276.2z"/>
		<path class="st0" d="M319.2,3.8v70.7h-8.6L303,42v32.4h-8.8V3.8h8.9l7.3,30.9V3.8H319.2z"/>
	</g>
	<g>
		<path class="st1" d="M14.3,85.6c-0.8-0.4-1.8-0.6-2.9-0.6H9.4H8H5.4v23.6H8h1.3h2.1c1.1,0,2.1-0.2,2.9-0.6c0.8-0.4,1.4-1,1.8-1.8
			c0.4-0.8,0.6-1.7,0.6-2.8v-13c0-1.1-0.2-2.1-0.6-2.8C15.8,86.6,15.1,86,14.3,85.6z M12.7,102.8c0,0.6-0.1,1.1-0.4,1.4
			c-0.3,0.3-0.7,0.5-1.3,0.5H9.4V88.8h1.7c0.5,0,1,0.2,1.3,0.5c0.3,0.3,0.4,0.8,0.4,1.4V102.8z"/>
		<polygon class="st1" points="24.4,85 22.7,85 22.7,108.6 24.4,108.6 26.7,108.6 33.2,108.6 33.2,104.7 26.7,104.7 26.7,98.8 
			32.3,98.8 32.3,94.9 26.7,94.9 26.7,88.9 33.2,88.9 33.2,85 26.7,85 		"/>
		<path class="st1" d="M48.5,96.5c-0.6-0.4-1.3-0.8-2.2-1.3c0,0,0,0-0.1,0c0,0,0,0-0.1,0C46.1,95,46,95,45.9,94.9
			c-0.1-0.1-0.2-0.1-0.4-0.2c-0.6-0.3-1.1-0.6-1.5-0.8c-0.4-0.2-0.6-0.5-0.9-0.8c-0.2-0.3-0.3-0.7-0.3-1.2v-1.6c0-0.5,0.2-1,0.5-1.3
			c0.3-0.3,0.8-0.5,1.4-0.5c0.6,0,1,0.2,1.3,0.5c0.3,0.3,0.5,0.8,0.5,1.4v1.3l4,0v-1.3c0-1.2-0.2-2.3-0.7-3.1c-0.5-0.9-1.1-1.5-2-2
			c-0.9-0.5-1.9-0.7-3.1-0.7c-1.2,0-2.3,0.2-3.2,0.7c-0.9,0.5-1.5,1.1-2,2c-0.5,0.9-0.7,1.9-0.7,3.1v1.2c0,1.2,0.2,2.1,0.6,2.9
			c0.4,0.8,0.9,1.4,1.5,1.9c0.6,0.5,1.4,0.9,2.2,1.4l0.2,0.1c0,0,0.1,0,0.1,0.1c0,0,0.1,0,0.1,0.1c0.7,0.3,1.2,0.6,1.6,0.8
			c0.4,0.2,0.7,0.5,0.9,0.8c0.2,0.3,0.4,0.7,0.4,1.1v2.1c0,0.6-0.2,1-0.5,1.4c-0.3,0.3-0.8,0.5-1.4,0.5c-0.6,0-1.1-0.2-1.4-0.5
			c-0.3-0.3-0.5-0.8-0.5-1.4v-1.3l-4,0v1.3c0,1.2,0.2,2.3,0.7,3.1c0.5,0.9,1.2,1.5,2,2c0.9,0.5,1.9,0.7,3.2,0.7
			c1.2,0,2.3-0.2,3.2-0.7c0.9-0.5,1.5-1.1,2-2c0.5-0.9,0.7-1.9,0.7-3.1v-2c0-1.1-0.2-2.1-0.6-2.8C49.5,97.5,49.1,96.9,48.5,96.5z"/>
		<rect x="56.2" y="85" class="st1" width="4" height="23.6"/>
		<path class="st1" d="M71.6,99.7h2v3.2c0,0.4-0.1,0.7-0.2,1c-0.2,0.3-0.4,0.5-0.7,0.6c-0.3,0.1-0.6,0.2-1,0.2c-0.4,0-0.7-0.1-1-0.2
			c-0.3-0.1-0.5-0.3-0.6-0.6c-0.1-0.3-0.2-0.5-0.2-0.9V90.8c0-0.4,0.1-0.8,0.2-1.1c0.1-0.3,0.3-0.5,0.6-0.7c0.3-0.2,0.6-0.2,0.9-0.2
			c0.3,0,0.6,0.1,0.9,0.2c0.2,0.1,0.4,0.4,0.6,0.6c0.1,0.3,0.2,0.6,0.2,1v1.8h4.1v-1.8c0-1.2-0.2-2.3-0.7-3.2c-0.5-0.9-1.1-1.6-2-2
			c-0.9-0.5-1.9-0.7-3.1-0.7c-1.2,0-2.3,0.2-3.2,0.7c-0.9,0.5-1.5,1.2-2,2.1c-0.5,0.9-0.7,2-0.7,3.3v12.2c0,1.2,0.2,2.2,0.7,3.1
			c0.5,0.9,1.2,1.5,2,2s2,0.7,3.2,0.7c1.2,0,2.3-0.2,3.2-0.7c0.9-0.5,1.5-1.2,2-2c0.5-0.9,0.7-1.9,0.7-3.2v-7.1h-5.9V99.7z"/>
		<polygon class="st1" points="91.6,99.5 86.4,85 83.3,85 83.3,108.6 87,108.6 87,94.9 92,108.6 95.2,108.6 95.2,85 91.6,85 		"/>
		<polygon class="st1" points="117.4,91.1 113.6,91.1 113.6,95.8 110.6,95.8 110.6,99.6 113.6,99.6 113.6,104.3 117.4,104.3 
			117.4,99.6 120.3,99.6 120.3,95.8 117.4,95.8 		"/>
		<path class="st1" d="M144.7,85.6c-0.8-0.4-1.8-0.6-2.9-0.6h-2.1h-1.3h-2.7v23.6h2.7h1.3h2.1c1.1,0,2.1-0.2,2.9-0.6
			c0.8-0.4,1.4-1,1.8-1.8c0.4-0.8,0.6-1.7,0.6-2.8v-13c0-1.1-0.2-2.1-0.6-2.8C146.1,86.6,145.5,86,144.7,85.6z M143.1,102.8
			c0,0.6-0.1,1.1-0.4,1.4c-0.3,0.3-0.7,0.5-1.3,0.5h-1.7V88.8h1.7c0.5,0,1,0.2,1.3,0.5c0.3,0.3,0.4,0.8,0.4,1.4V102.8z"/>
		<polygon class="st1" points="154.8,85 153,85 153,108.6 154.8,108.6 157,108.6 163.5,108.6 163.5,104.7 157,104.7 157,98.8 
			162.7,98.8 162.7,94.9 157,94.9 157,88.9 163.5,88.9 163.5,85 157,85 		"/>
		<polygon class="st1" points="175,101.3 172.7,85 168.5,85 172.8,108.6 177.2,108.6 181.5,85 177.3,85 		"/>
		<polygon class="st1" points="188.5,85 186.7,85 186.7,108.6 188.5,108.6 190.8,108.6 197.2,108.6 197.2,104.7 190.8,104.7 
			190.8,98.8 196.4,98.8 196.4,94.9 190.8,94.9 190.8,88.9 197.2,88.9 197.2,85 190.8,85 		"/>
		<polygon class="st1" points="206.4,85 202.4,85 202.4,108.6 204,108.6 206.4,108.6 212.5,108.6 212.5,104.7 206.4,104.7 		"/>
		<path class="st1" d="M227.1,85.4c-0.9-0.4-2-0.6-3.3-0.6c-1.3,0-2.4,0.2-3.3,0.6s-1.6,1.1-2.1,1.9c-0.5,0.8-0.7,1.8-0.7,3v13
			c0,1.2,0.2,2.2,0.7,3c0.5,0.8,1.2,1.5,2.1,1.9s2,0.7,3.3,0.7c1.3,0,2.4-0.2,3.3-0.7s1.6-1.1,2.1-1.9c0.5-0.8,0.7-1.8,0.7-3v-13
			c0-1.2-0.2-2.2-0.7-3C228.7,86.5,228,85.8,227.1,85.4z M225.8,102.8c0,0.4-0.1,0.8-0.2,1.1c-0.2,0.3-0.4,0.5-0.7,0.7
			c-0.3,0.2-0.7,0.2-1.1,0.2c-0.4,0-0.8-0.1-1.1-0.2c-0.3-0.2-0.5-0.4-0.7-0.7c-0.2-0.3-0.2-0.7-0.2-1.1v-12c0-0.4,0.1-0.8,0.2-1.1
			c0.2-0.3,0.4-0.5,0.7-0.7c0.3-0.2,0.6-0.2,1.1-0.2c0.4,0,0.8,0.1,1.1,0.2c0.3,0.2,0.5,0.4,0.7,0.7c0.2,0.3,0.2,0.7,0.2,1.1V102.8z
			"/>
		<path class="st1" d="M244.9,85.6c-0.8-0.4-1.8-0.6-3-0.6h-2.1h-2.1h-1.9v23.6h4v-9.2h2.1c1.2,0,2.2-0.2,3-0.6
			c0.8-0.4,1.5-1,1.9-1.8c0.4-0.8,0.7-1.7,0.7-2.8v-4c0-1.1-0.2-2.1-0.6-2.9C246.3,86.6,245.7,86,244.9,85.6z M243.3,93.6
			c0,0.4-0.1,0.7-0.2,1c-0.1,0.3-0.3,0.5-0.6,0.7c-0.2,0.2-0.5,0.2-0.8,0.2h-2v-6.7h2c0.3,0,0.6,0.1,0.9,0.2
			c0.2,0.2,0.4,0.4,0.5,0.7c0.1,0.3,0.2,0.7,0.2,1.1V93.6z"/>
		<polygon class="st1" points="261.2,97.8 257.3,85 253.4,85 253.4,108.6 257.1,108.6 257.1,94.5 260.2,104.4 262.2,104.4 
			265.4,93.9 265.4,108.6 269,108.6 269,85 265.2,85 		"/>
		<polygon class="st1" points="276.6,85 274.8,85 274.8,108.6 276.6,108.6 278.9,108.6 285.3,108.6 285.3,104.7 278.9,104.7 
			278.9,98.8 284.5,98.8 284.5,94.9 278.9,94.9 278.9,88.9 285.3,88.9 285.3,85 278.9,85 		"/>
		<polygon class="st1" points="298.8,99.5 293.7,85 290.5,85 290.5,108.6 294.2,108.6 294.2,94.9 299.2,108.6 302.4,108.6 302.4,85 
			298.8,85 		"/>
		<polygon class="st1" points="319.7,85 307.9,85 307.9,88.8 311.8,88.8 311.8,108.6 315.8,108.6 315.8,88.8 319.7,88.8 		"/>
	</g>
</g>
</svg>
