<?xml version="1.0" encoding="utf-8"?>
<!-- Generator: Adobe Illustrator 25.0.1, SVG Export Plug-In . SVG Version: 6.00 Build 0)  -->
<svg version="1.1" id="Layer_1" xmlns="http://www.w3.org/2000/svg" xmlns:xlink="http://www.w3.org/1999/xlink" x="0px" y="0px"
	 viewBox="0 0 325.06 112.6" style="enable-background:new 0 0 325.06 112.6;" xml:space="preserve">
<style type="text/css">
	.st0{fill:#FFFFFF;}
	.st1{fill:#FF483C;}
</style>
<g>
	<path class="st0" d="M5.97,6.1h8.87v70.85H5.97V6.1z"/>
	<path class="st0" d="M42.42,6.1l5.9,70.85h-8.87l-0.74-8.87h-6.64l-0.74,8.87h-8.87l5.9-70.85C28.36,6.1,42.42,6.1,42.42,6.1z
		 M32.81,59.26h5.15l-2.58-30.82L32.81,59.26z"/>
	<path class="st0" d="M81.04,6.1v70.85h-8.62l-7.58-32.5v32.5h-8.87V6.1h8.97l7.28,31.02V6.1H81.04z"/>
	<path class="st0" d="M118.29,68.08c0.99,0,1.49-0.48,1.49-1.44V6.1h8.87v63.47c0,2.05-0.73,3.78-2.18,5.2
		c-1.45,1.45-3.19,2.18-5.2,2.18h-8.87v-8.87C112.4,68.08,118.29,68.08,118.29,68.08z"/>
	<path class="st0" d="M156.01,6.1l5.9,70.85h-8.87l-0.74-8.87h-6.64l-0.74,8.87h-8.87l5.9-70.85C141.95,6.1,156.01,6.1,156.01,6.1z
		 M146.4,59.26h5.15l-2.58-30.82L146.4,59.26z"/>
	<path class="st0" d="M188.62,6.1c1.22,0,2.26,0.45,3.12,1.34c0.89,0.86,1.34,1.9,1.34,3.12v19.18h-8.87V16.45
		c0-0.99-0.5-1.49-1.49-1.49h-2.97c-0.96,0-1.44,0.5-1.44,1.49v50.19c0,0.96,0.48,1.44,1.44,1.44h2.97c0.99,0,1.49-0.48,1.49-1.44
		V53.32h8.87v19.23c0,1.22-0.45,2.26-1.34,3.12c-0.86,0.86-1.9,1.29-3.12,1.29h-14.77c-1.22,0-2.26-0.43-3.12-1.29
		s-1.29-1.9-1.29-3.12v-62c0-1.22,0.43-2.26,1.29-3.12c0.86-0.89,1.9-1.34,3.12-1.34h14.77V6.1z"/>
	<path class="st0" d="M215.49,6.1h8.87v25.12c0,3.37-1.14,6.31-3.42,8.82c2.28,2.54,3.42,5.5,3.42,8.87v28.04h-8.87V48.91
		c0-1.22-0.43-2.26-1.29-3.12c-0.89-0.86-1.95-1.29-3.17-1.29h-1.44v32.45h-8.87V6.1h8.87v29.53h1.44c1.22,0,2.28-0.43,3.17-1.29
		c0.86-0.86,1.29-1.9,1.29-3.12V6.1z"/>
	<path class="st0" d="M248.26,6.1c2.01,0,3.75,0.73,5.2,2.18s2.18,3.19,2.18,5.2v16.25h-8.87V16.45c0-0.99-0.5-1.49-1.49-1.49h-2.97
		c-0.96,0-1.44,0.5-1.44,1.49v12.73c0,0.33,0.1,0.63,0.3,0.89l12.29,16c1.45,1.85,2.18,3.95,2.18,6.29v17.19
		c0,2.05-0.73,3.78-2.18,5.2c-1.45,1.45-3.19,2.18-5.2,2.18h-8.87c-2.05,0-3.78-0.73-5.2-2.18c-1.45-1.42-2.18-3.15-2.18-5.2V53.32
		h8.87v13.33c0,0.96,0.48,1.44,1.44,1.44h2.97c0.99,0,1.49-0.48,1.49-1.44V52.37c0-0.33-0.1-0.63-0.3-0.89l-12.34-16
		c-1.42-1.85-2.13-3.95-2.13-6.29V13.48c0-2.01,0.73-3.75,2.18-5.2c1.42-1.45,3.15-2.18,5.2-2.18C239.39,6.1,248.26,6.1,248.26,6.1z
		"/>
	<path class="st0" d="M279.55,6.1c2.01,0,3.75,0.73,5.2,2.18s2.18,3.19,2.18,5.2v56.09c0,2.05-0.73,3.78-2.18,5.2
		c-1.45,1.45-3.19,2.18-5.2,2.18h-8.87c-2.05,0-3.78-0.73-5.2-2.18c-1.45-1.42-2.18-3.15-2.18-5.2V13.48c0-2.01,0.73-3.75,2.18-5.2
		c1.42-1.45,3.15-2.18,5.2-2.18C270.68,6.1,279.55,6.1,279.55,6.1z M276.57,68.08c0.99,0,1.49-0.48,1.49-1.44V16.45
		c0-0.99-0.5-1.49-1.49-1.49h-2.97c-0.96,0-1.44,0.5-1.44,1.49v50.19c0,0.96,0.48,1.44,1.44,1.44H276.57z"/>
	<path class="st0" d="M319.67,6.1v70.85h-8.62l-7.58-32.5v32.5h-8.87V6.1h8.97l7.28,31.02V6.1H319.67z"/>
</g>
<g>
	<path class="st1" d="M15.11,94.9v5.87c0,1.03-0.19,1.91-0.57,2.64c-0.38,0.74-0.94,1.3-1.67,1.69s-1.6,0.59-2.62,0.59
		c-1.03,0-1.92-0.19-2.66-0.57s-1.3-0.93-1.69-1.65s-0.59-1.58-0.59-2.58V90.73c0-1.05,0.19-1.96,0.57-2.72s0.94-1.34,1.67-1.74
		s1.6-0.6,2.62-0.6c1,0,1.86,0.19,2.57,0.58s1.26,0.95,1.64,1.69c0.38,0.74,0.57,1.62,0.57,2.64v1.51h-3.44v-1.51
		c0-0.32-0.05-0.59-0.16-0.82s-0.26-0.41-0.47-0.53c-0.2-0.12-0.44-0.18-0.71-0.18c-0.3,0-0.56,0.07-0.78,0.2
		c-0.22,0.14-0.39,0.34-0.5,0.59c-0.12,0.25-0.18,0.55-0.18,0.89v10.17c0,0.28,0.06,0.52,0.18,0.73c0.12,0.21,0.3,0.37,0.53,0.49
		c0.23,0.11,0.51,0.17,0.82,0.17c0.32,0,0.61-0.06,0.84-0.18c0.24-0.12,0.42-0.29,0.55-0.51c0.13-0.23,0.19-0.5,0.19-0.81v-2.68
		h-1.65V94.9H15.11z"/>
	<path class="st1" d="M23.55,85.86h3.28v19.63h-3.28V85.86z M25.05,93.98h3.54c0.29,0,0.54-0.05,0.75-0.16
		c0.21-0.1,0.37-0.25,0.48-0.45c0.11-0.19,0.16-0.43,0.16-0.69V90.5c0-0.3-0.05-0.55-0.16-0.77c-0.11-0.22-0.27-0.38-0.48-0.49
		s-0.46-0.17-0.75-0.17h-3.54v-3.21h3.33c1.06,0,1.97,0.17,2.72,0.52s1.32,0.86,1.72,1.52c0.4,0.67,0.59,1.47,0.59,2.41v2.29
		c0,0.96-0.2,1.79-0.59,2.48c-0.4,0.69-0.97,1.21-1.73,1.57s-1.66,0.54-2.71,0.54h-3.33C25.05,97.19,25.05,93.98,25.05,93.98z
		 M27.78,96.59l3.06-0.62l3.13,9.53h-3.59L27.78,96.59z"/>
	<path class="st1" d="M47.12,85.87h2.35l4.68,19.62h-3.32l-2.54-12.86l-2.54,12.86h-3.32L47.12,85.87z M45.62,99.31h5.34v3.13h-5.34
		V99.31z"/>
	<path class="st1" d="M62.36,85.87h3.35v19.62h-3.35V85.87z M63.92,94.67h3.47c0.27,0,0.5-0.06,0.7-0.19
		c0.2-0.13,0.35-0.31,0.46-0.55c0.11-0.24,0.16-0.53,0.16-0.86v-2.31c0-0.35-0.05-0.65-0.16-0.9c-0.1-0.25-0.25-0.44-0.45-0.57
		s-0.44-0.2-0.71-0.2h-3.47v-3.21h3.56c0.97,0,1.8,0.17,2.5,0.51c0.69,0.34,1.22,0.84,1.58,1.5s0.54,1.45,0.54,2.38v3.31
		c0,0.91-0.18,1.68-0.55,2.33c-0.36,0.64-0.89,1.13-1.59,1.47s-1.52,0.51-2.48,0.51h-3.56C63.92,97.89,63.92,94.67,63.92,94.67z"/>
	<path class="st1" d="M80.82,85.87h3.35v19.62h-3.35V85.87z M82.41,94.25h6.57v3.14h-6.57V94.25z M86.81,85.87h3.35v19.62h-3.35
		V85.87z"/>
	<path class="st1" d="M101.78,105.49h-3.35V85.87h3.35V105.49z"/>
	<path class="st1" d="M112.28,105.11c-0.7-0.39-1.24-0.96-1.61-1.71s-0.56-1.65-0.56-2.7V90.66c0-1.05,0.19-1.95,0.56-2.7
		c0.37-0.75,0.91-1.32,1.61-1.71s1.55-0.59,2.54-0.59s1.84,0.2,2.54,0.59c0.71,0.39,1.24,0.96,1.61,1.71s0.55,1.65,0.55,2.71v1.58
		h-3.39v-1.58c0-0.33-0.05-0.62-0.15-0.86s-0.25-0.43-0.45-0.56s-0.44-0.2-0.72-0.2c-0.27,0-0.5,0.06-0.7,0.19
		c-0.2,0.13-0.35,0.31-0.45,0.55c-0.1,0.24-0.16,0.53-0.16,0.86v10.04c0,0.33,0.05,0.62,0.16,0.86c0.1,0.24,0.25,0.42,0.45,0.55
		c0.2,0.13,0.43,0.19,0.7,0.19c0.29,0,0.53-0.06,0.73-0.19c0.2-0.13,0.35-0.31,0.45-0.55c0.1-0.24,0.15-0.53,0.15-0.87V99.1h3.39
		v1.58c0,1.05-0.18,1.95-0.55,2.71c-0.37,0.75-0.91,1.32-1.61,1.71c-0.71,0.39-1.55,0.59-2.54,0.59
		C113.83,105.69,112.98,105.5,112.28,105.11z"/>
	<path class="st1" d="M142.35,94.84v3.21h-8.02v-3.21H142.35z M139.91,101.93h-3.13V90.97h3.13V101.93z"/>
	<path class="st1" d="M162.72,85.87h2.59l2.12,13.62l0.99-13.62h3.4l-2.51,19.62h-3.21l-2-12.68l-2.15,12.68h-3.21l-2.52-19.62h3.4
		l0.99,13.62L162.72,85.87z"/>
	<path class="st1" d="M179.84,85.87h3.35v19.62h-3.35V85.87z M181.32,85.87h7.23v3.26h-7.23V85.87z M181.32,94.12h6.56v3.25h-6.56
		V94.12z M181.32,102.23h7.23v3.27h-7.23V102.23z"/>
	<path class="st1" d="M196.55,85.87h3.36v19.62h-3.36V85.87z M198.47,102.35h2.94c0.41,0,0.74-0.11,0.97-0.33s0.34-0.53,0.34-0.92
		v-2.63c0-0.32-0.05-0.6-0.15-0.83c-0.1-0.23-0.26-0.4-0.47-0.53c-0.21-0.12-0.45-0.18-0.74-0.18h-2.89v-3.1h2.81
		c0.4,0,0.7-0.13,0.92-0.38s0.33-0.61,0.33-1.08v-2.11c0-0.4-0.11-0.7-0.33-0.92s-0.52-0.33-0.91-0.33h-2.82v-3.13h3.16
		c0.88,0,1.64,0.16,2.27,0.47s1.11,0.78,1.44,1.38c0.33,0.61,0.49,1.34,0.49,2.19v2.11c0,0.59-0.11,1.12-0.34,1.57
		s-0.55,0.83-0.98,1.12s-0.94,0.49-1.54,0.59c0.66,0.09,1.22,0.28,1.68,0.58c0.46,0.3,0.82,0.69,1.07,1.17
		c0.25,0.48,0.37,1.04,0.37,1.68v2.67c0,0.86-0.16,1.6-0.49,2.21s-0.8,1.08-1.42,1.4c-0.63,0.32-1.37,0.48-2.25,0.48h-3.45v-3.15
		H198.47z"/>
	<path class="st1" d="M226.47,85.87h3.35v19.62h-3.35V85.87z M228.7,102.28h2.51c0.45,0,0.8-0.14,1.04-0.41
		c0.24-0.27,0.36-0.66,0.36-1.15V90.65c0-0.49-0.12-0.88-0.36-1.15c-0.24-0.27-0.59-0.41-1.04-0.41h-2.51v-3.21h2.85
		c0.94,0,1.74,0.17,2.4,0.52c0.67,0.35,1.17,0.85,1.53,1.51c0.35,0.66,0.53,1.45,0.53,2.37v10.82c0,0.92-0.18,1.71-0.53,2.37
		s-0.86,1.17-1.53,1.51c-0.67,0.35-1.47,0.52-2.41,0.52h-2.83L228.7,102.28L228.7,102.28z"/>
	<path class="st1" d="M244.56,85.87h3.35v19.62h-3.35V85.87z M246.04,85.87h7.23v3.26h-7.23V85.87z M246.04,94.12h6.56v3.25h-6.56
		V94.12z M246.04,102.23h7.23v3.27h-7.23V102.23z"/>
	<path class="st1" d="M263.91,105.12c-0.74-0.38-1.3-0.94-1.69-1.66s-0.59-1.59-0.59-2.61V99.8l3.33-0.03v1.05
		c0,0.5,0.14,0.88,0.42,1.17c0.28,0.28,0.67,0.42,1.16,0.42s0.86-0.14,1.13-0.42c0.27-0.28,0.4-0.66,0.4-1.15v-1.71
		c0-0.36-0.1-0.67-0.3-0.94c-0.2-0.27-0.46-0.5-0.78-0.69s-0.75-0.42-1.3-0.69c-0.04-0.02-0.07-0.04-0.1-0.05
		c-0.03-0.02-0.07-0.04-0.1-0.05l-0.18-0.08c-0.73-0.37-1.35-0.75-1.86-1.15s-0.94-0.93-1.28-1.59c-0.34-0.66-0.51-1.47-0.51-2.43
		v-1.01c0-1,0.19-1.86,0.57-2.57c0.38-0.72,0.94-1.26,1.67-1.64s1.61-0.57,2.63-0.57c1,0,1.86,0.19,2.58,0.57s1.27,0.93,1.65,1.65
		s0.57,1.59,0.57,2.61v1.11L268,91.65v-1.12c0-0.5-0.13-0.9-0.38-1.18c-0.26-0.28-0.61-0.42-1.07-0.42c-0.49,0-0.86,0.13-1.13,0.38
		c-0.27,0.26-0.4,0.61-0.4,1.06v1.31c0,0.37,0.1,0.69,0.29,0.96s0.44,0.5,0.73,0.68s0.7,0.41,1.22,0.67c0.1,0.05,0.2,0.09,0.3,0.15
		c0.1,0.05,0.21,0.11,0.32,0.16c0.02,0.01,0.03,0.02,0.05,0.03c0.01,0.01,0.03,0.02,0.05,0.03c0.75,0.4,1.35,0.76,1.81,1.1
		s0.85,0.81,1.17,1.42s0.49,1.39,0.49,2.35v1.63c0,1.02-0.19,1.89-0.57,2.61c-0.38,0.73-0.94,1.28-1.67,1.66
		c-0.73,0.38-1.6,0.57-2.62,0.57C265.52,105.69,264.64,105.5,263.91,105.12z"/>
	<path class="st1" d="M283.17,105.49h-3.35V85.87h3.35V105.49z"/>
	<path class="st1" d="M301.29,94.9v5.87c0,1.03-0.19,1.91-0.57,2.64s-0.94,1.3-1.67,1.69s-1.6,0.59-2.62,0.59
		c-1.03,0-1.92-0.19-2.66-0.57s-1.3-0.93-1.69-1.65s-0.59-1.58-0.59-2.58V90.73c0-1.05,0.19-1.96,0.57-2.72s0.94-1.34,1.67-1.74
		s1.6-0.6,2.62-0.6c1,0,1.86,0.19,2.57,0.58c0.72,0.39,1.26,0.95,1.64,1.69c0.38,0.74,0.57,1.62,0.57,2.64v1.51h-3.44v-1.51
		c0-0.32-0.05-0.59-0.16-0.82c-0.11-0.23-0.26-0.41-0.46-0.53c-0.2-0.12-0.44-0.18-0.71-0.18c-0.3,0-0.55,0.07-0.78,0.2
		c-0.22,0.13-0.39,0.33-0.51,0.58s-0.18,0.55-0.18,0.89v10.17c0,0.28,0.06,0.52,0.18,0.73c0.12,0.21,0.3,0.37,0.53,0.49
		c0.23,0.11,0.51,0.17,0.82,0.17c0.32,0,0.61-0.06,0.84-0.18c0.24-0.12,0.42-0.29,0.55-0.51c0.13-0.23,0.19-0.5,0.19-0.81V98.1
		h-1.65v-3.2H301.29z"/>
	<path class="st1" d="M309.74,85.87h2.63l4.62,13.09l-0.36,0.53V85.87h3.05v19.61h-2.66l-4.56-12.33l0.35-0.54v12.87h-3.06V85.87
		H309.74z"/>
</g>
</svg>
