<?xml version="1.0" encoding="utf-8"?>
<!-- Generator: Adobe Illustrator 25.0.1, SVG Export Plug-In . SVG Version: 6.00 Build 0)  -->
<svg version="1.1" id="Layer_1" xmlns="http://www.w3.org/2000/svg" xmlns:xlink="http://www.w3.org/1999/xlink" x="0px" y="0px"
	 viewBox="0 0 90.6 11.6" style="enable-background:new 0 0 90.6 11.6;" xml:space="preserve">
<style type="text/css">
	.st0{fill:#FFFFFF;}
</style>
<g>
	<g>
		<path class="st0" d="M0.4,0.4h3.1v10.9H0.4V0.4z"/>
		<path class="st0" d="M10.4,9.8H7.3L7,11.3H3.8L7,0.4h3.7l3.2,10.9h-3.2L10.4,9.8z M7.9,7.2h1.9l-1-4.1L7.9,7.2z"/>
		<path class="st0" d="M17.4,5.7v5.6h-3V0.4h3.1l2.7,5.3V0.4h3v10.9h-2.9L17.4,5.7z"/>
		<path class="st0" d="M28.4,8.4c0.3,0.2,0.7,0.4,1.1,0.4c0.6,0,1.1-0.4,1.1-1.1V0.4h3.1v7.4c0,2.6-1.5,3.7-3.8,3.7
			c-0.8,0-1.7-0.2-2.4-0.7L28.4,8.4z"/>
		<path class="st0" d="M40.3,9.8h-3.1l-0.3,1.5h-3.2l3.2-10.9h3.7l3.2,10.9h-3.2L40.3,9.8z M37.8,7.2h1.9l-1-4.1L37.8,7.2z"/>
		<path class="st0" d="M43.4,5.9c0-3.3,1.9-5.6,4.9-5.6c2.5,0,3.6,1.7,4.1,3.1l-2.6,1.1C49.6,3.7,49,3,48.2,3
			c-1.1,0-1.8,1.2-1.8,2.9s0.7,2.9,1.8,2.9c0.8,0,1.4-0.7,1.6-1.5l2.5,1.1c-0.5,1.4-1.5,3.2-4.1,3.2C45.3,11.5,43.4,9.2,43.4,5.9z"
			/>
		<path class="st0" d="M56.8,7.6l-0.6,1.1v2.6h-3.1V0.4h3.1v4.2l2.3-4.2h3.6l-3.3,5l3.5,5.8h-3.6L56.8,7.6z"/>
		<path class="st0" d="M63.4,7.7c0.7,0.7,1.6,1.1,2.7,1.1c0.6,0,1-0.3,1-0.7c0-0.5-0.5-0.7-1.3-1c-1.4-0.5-3.4-1-3.4-3.4
			c0-1.8,1.4-3.4,4-3.4c1.4,0,2.7,0.4,3.7,1.2l-1.4,2.3c-0.7-0.6-1.6-0.9-2.3-0.9c-0.7,0-0.9,0.3-0.9,0.6c0,0.5,0.5,0.7,1.4,1
			c1.4,0.5,3.4,1.1,3.4,3.4c0,2.2-1.6,3.6-4.1,3.6c-1.9,0-3.2-0.5-4.2-1.4L63.4,7.7z"/>
		<path class="st0" d="M75.4,0.2c3,0,4.9,2.3,4.9,5.6s-1.9,5.6-4.9,5.6s-4.9-2.3-4.9-5.6S72.4,0.2,75.4,0.2z M75.4,3
			c-1.2,0-1.8,1.2-1.8,2.9s0.6,2.9,1.8,2.9s1.8-1.2,1.8-2.9C77.3,4.2,76.6,3,75.4,3z"/>
		<path class="st0" d="M84.3,5.7v5.6h-3V0.4h3.1l2.7,5.3V0.4h3v10.9h-2.9L84.3,5.7z"/>
	</g>
</g>
</svg>
