<?xml version="1.0" encoding="utf-8"?>
<!-- Generator: Adobe Illustrator 25.0.1, SVG Export Plug-In . SVG Version: 6.00 Build 0)  -->
<svg version="1.1" id="Layer_1" xmlns="http://www.w3.org/2000/svg" xmlns:xlink="http://www.w3.org/1999/xlink" x="0px" y="0px"
	 viewBox="0 0 50 50" style="enable-background:new 0 0 50 50;" xml:space="preserve">
<style type="text/css">
	.st0{fill:#F2F2F2;}
	.st1{fill-rule:evenodd;clip-rule:evenodd;fill:#F2F2F2;}
</style>
<path class="st0" d="M41.6,44.65H29.08V30.14h-7.65v14.51H8.9V24.26H4.42c-0.85,0-1.56-0.52-1.82-1.32
	c-0.26-0.81,0.01-1.65,0.7-2.14L24.13,5.72c0.67-0.49,1.57-0.49,2.24,0l20.83,15.07c0.69,0.5,0.96,1.34,0.7,2.14
	s-0.98,1.33-1.82,1.33H41.6V44.65z M31.08,42.65h8.53V22.26h6.22L25.25,7.37L4.68,22.26h6.22v20.39h8.53V28.14h11.65V42.65z
	 M46.03,22.41C46.03,22.41,46.03,22.41,46.03,22.41l0.59-0.81L46.03,22.41z"/>
</svg>
