<?xml version="1.0" encoding="UTF-8"?>
<svg id="Layer_1" data-name="Layer 1" xmlns="http://www.w3.org/2000/svg" viewBox="0 0 140.37 100">
  <defs>
    <style>
      .cls-1 {
        fill: #ccc;
      }
    </style>
  </defs>
  <path class="cls-1" d="M52.19,71.93c-.04.16-.1.35-.15.56.19-.08.4-.16.59-.24l.57.69.02.02.93-.42.95-2.86-3.43,1.42.04.04.61.73-.14.06Z"/>
  <path class="cls-1" d="M136.18,36.85l-11.26-.14h-.09l-2.25-.02s-2.33,4.12-2.72,4.81c-.16-.22-3.6-4.89-3.6-4.89l-11.11-.13h-.1s-.54,0-.54,0c.5-.39,1.02-.79,1.56-1.22,1.38-1.06,5.98-5,6.95-10.42.46-2.58-1-5.53-1.3-6.1l-.8-1.52-1.01,1.38c-.16.21-.31.41-.47.62.17-1.07.29-2.05.29-2.53,0-2.93-.95-5.47-2.54-6.79l-2.9-2.42-.8,2.26c-.6-2.68-2.04-5.07-3.13-6.16l-3.59-3.59-.86,5s-.42,2.07-2.59,4.66c-.27-1.65-1.06-2.89-1.79-3.57l-3.41-3.1-.95,4.52c-.03.09-.33,1.22-1.52,2.9-.63.88-1.26,1.69-1.9,2.46-.44-1.22-1.42-3.27-3.23-4.18l-2.85-2.14-.26,1.78c-.01.05-.69,4.57-1.88,7.91-1.13,3.16-2.5,5.14-4.34,7.24-.62.15-1.81.41-2.81.48-3.81.24-5.52,1.41-6.91,3.08-.78.93-1.2,2.14-1.2,3.5,0,.99.2,1.73.34,2.1.12.32.24.62.37.91-1.42.6-5.43,2.53-6.26,5.57-.18.66-.27,1.33-.27,1.99,0,1.68.6,3.07,1.04,3.96.47.95,1.35,2.3,2.21,3.46l-.72.29c-3.13,1.39-7.35,3.66-8.24,4.27-.15-.15-2.18-2.42-2.18-2.42l-28.61,5.09-15.46,3.75s15.01,4.45,15.06,4.46c-2.97,5.9-9.82,20.04-10.48,21.35-1.11.79-7.08,5.38-7.08,5.38l3.67,9.3,19.66-4.19s5.21-12.26,5.24-12.32c0-.05,5.88-1,5.9-1,.91,2.66,2.89,4.65,3.7,5.32,3.39,2.82,8.79,2.89,15.62.23,1.44-.56,3.14-1.36,5.17-2.43,2.14-1.13,4.51-2.74,7.03-4.8,0,0,.03-.03.05-.05.08.06.16.14.23.2,3.38,2.81,8.79,2.88,15.62.21,1.44-.56,3.13-1.36,5.16-2.43,1.29-.68,2.06-1.38,3.49-2.39.92.92,1.65,1.51,2.82,2.29,0,0,1.96,1.03,4,1.51,1.97.46,3.59.57,5.24.59,0,0,4.32-.46,4.32-.46,1.9-.39,3.38-.84,5.69-1.59,1.97-.63,4.02-1.67,6.28-3.18,2.2-1.47,4.21-3.22,5.97-5.21,1.73-1.94,3.23-4.03,4.48-6.23l.02-.04,11-20.58-4.19-6.6ZM63.39,28.66c.97-1.17,2.02-1.95,5.06-2.14,1.84-.12,4.09-.75,4.11-.77,2.11-2.34,3.93-4.7,5.35-8.69,1.3-3.63,1.82-5.97,1.82-5.97.71.06,1.46,1.88,1.62,3.04.19,1.42.32,3.5-.98,5.25,0,0,3.18-1.68,7.33-7.53,1.66-2.32,1.94-3.82,1.94-3.89,0,.07,1.5,1.37.91,4.16-.42,2.02-3.18,5.51-3.18,5.51,0,0,5.65-4.02,6.62-4.99,3.89-3.89,4.41-7.26,4.41-7.26,1.55,1.56,3.47,6.02,2.27,8.82-1.49,3.5-2.79,4.73-5.39,6.48,0,0,4.16-.58,6.88-3.36,2.07-2.12,3.24-5.45,3.24-5.45,1.55,1.3,2.53,5.65.26,10.38-1.12,2.34-3.89,3.9-3.89,3.9,1.55,1.03,3.64.12,5.97-1.82,1.56-1.3,1.56-4.41,1.56-4.41,0,0,1.36,2.6,1.03,4.41-.66,3.75-3.63,7-5.96,8.81-4.32,3.36-6.98,5.31-10.63,7-3.37,1.55-6.53,2.71-12.71,2.86-1.81.04-4.93-2.6-5.76-2.66-5.76-.45-5.77-6.68-5.77-6.68-1.29.39-2.52.65-4.28.26-.94-.21-1.69-.72-2.2-2.2-.15-.44-.48-2,.39-3.04ZM68.19,51.68l-.16-.91c-.06-.34-.18-1.1-.26-1.9-.03-.27-.05-.54-.07-.8.17-.06.34-.11.51-.16.49.12,1.04.22,1.64.29.48.06.99.11,1.53.13-.72.76-1.9,1.99-3.2,3.35ZM66.34,44.42s4.15-.48,6.58-1.17c1.36-.39,1.89-1.56,1.89-1.56,0,0,1.48.3,2.85,1.04,2.88,1.55-1.3,2.4-2.34,2.6-5.75,1.08-5.18.26-8.98-.9ZM57.17,39.74c.58-2.14,4.86-3.89,4.86-3.89,0,0,1.94-1.13,5.69-.23-.52-.09-1.95-.31-2.37-.15-1.37.49-3.51,1.17-4.53,1.75-1.43.8-3.11,2.76-2.62,4.86.54,2.35,3.4,5.88,3.4,5.88-4.57-8.6-1.02-9.24.68-10.4.82-.56,5.26-1.79,5.62-1.89,2.27.59,1.92,3.49,2.5,3.69l2.46,1.81s-1.49,1.1-3.4,1.1c-1.92,0-3.12.59-3.7,1.17-.57.59-.64,1.75-.77,3.12-.16,1.61.36,4.6.36,4.6,0,0-2.6-.78-4.64-3.05-.92-1.02-2.37-3.12-2.95-4.29-.58-1.16-1.02-2.48-.58-4.08ZM126.74,62.43c-1.17,2.04-2.55,3.97-4.15,5.76-1.6,1.8-3.42,3.39-5.41,4.72l-.41.27c-1.85,1.25-3.44,2.32-5.07,2.83-2.37.77-4.02,1.07-6.46,1.48-1.48.24-2.66.36-3.71.36-.66,0-1.26-.05-1.8-.14l-.73-.13c-2.61-.46-3.59-.64-5.32-1.85-1.22-.87-1.61-1.56-2.19-2.6l-.08-.15c-.12-.19-.21-.38-.3-.57-1.95,1.51-3.77,2.72-5.43,3.59-1.94,1.03-3.54,1.77-4.87,2.3-2.06.8-5.09,1.76-7.84,1.76-2.02,0-3.67-.51-4.87-1.51-.45-.38-1.92-1.71-2.4-3.44l-.94,2.78-.61.5c-2.37,1.93-4.58,3.44-6.55,4.48-1.94,1.03-3.53,1.77-4.88,2.3-2.05.8-5.08,1.76-7.84,1.76-2.02,0-3.65-.51-4.86-1.51-.46-.39-2.01-1.79-2.46-3.59-.55-2.29-.49-3.46-.47-3.69.03-.31.28-3.96.86-5.71.48-1.48,1.12-2.93,1.9-4.35-.99.2-2.33.48-3.63.74l1.52,1.61-4.63,9.31-.45.09c-3.62.72-5.22,1.03-5.93,1.16-.02.03-.03.06-.04.09-.16.33-.37.81-.62,1.39-.5,1.15-1.18,2.68-1.85,4.22-1.35,3.06-2.71,6.11-2.71,6.11l-.19.42-16.16,3.43-2.08-5.14,5.63-3.99,12.74-25.34-7.18-1.49h0s-4.74-.95-4.74-.95l4.76-.84h0s31-5.57,31-5.57l.64.06,2.88,3.9-.08.12c.27-.24.55-.47.82-.69,2.01-1.65,3.84-2.91,5.45-3.76,1.66-.87,2.57-1.34,2.95-1.5.39-.16.66-.28.86-.36.23-.09.52-.2.84-.31.23.21.45.41.68.6,2.06,1.67,4.09,2.32,4.36,2.4l1.19.36c-2.03,2.14-3.84,4.06-4.13,4.43-1.03.2-2.91.59-3.98,1-.35.13-1.15.27-3.6,1.62-2.13,1.17-3.87,2.96-4.78,4.93l-1.19,2.97c-.24.45-.62,2.11-.8,3.64-.02.18-.03.36-.05.53,0,.04,0,.07,0,.1-.06.72.67.89,1.49.85h.03c.91-.04,1.91-.33,2.07-.41.03-.02.03-.02-.02-.01.25-1.14.49-2.02.64-2.54,0,0,0-.02,0-.03.08-.25.14-.42.16-.51l1.3-3.06c.49-1.06,1.27-1.92,2.35-2.64.02-.02.05-.03.08-.05.19-.12.37-.25.57-.37,2.38-1.31,2.97-1.57,3.08-1.61.48-.19,2.04-.52,3.22-.76.78-.16,1.4-.27,1.4-.27l.43-.45,10.2-10.99-1.62-2.14c.28,0,.56-.03.85-.05l1.81,2.37-8.97,9.66,1.14,1.6c.95-1.87,2.14-3.68,3.56-5.41,2.29-2.78,4.48-5.03,6.5-6.68,2.02-1.65,3.85-2.91,5.46-3.76.37-.2.7-.36.99-.52.84-.07,1.63-.16,2.36-.27,3.64-.55,6.07-1.54,8.52-2.68.58-.26,1.13-.53,1.67-.81,1.05-.55,2.04-1.14,3.02-1.77.1-.02.16-.05.18-.05l.6-.19,2.13,2.79,1.92-3.37,10.21.12,2.69,3.66-10.67,19.73c-.74,1.3-1.01,2.2-1.06,2.81,1.1-.14,2.17-.56,3.2-1.26,1.37-.91,2.56-2.25,3.54-3.97l11.85-20.86,10.36.12,2.32,3.87-10.17,19.03Z"/>
  <path class="cls-1" d="M99.24,48.37l-7.1,7.64-.3.06c-1.43.27-3.93.78-4.46.99-.03,0-.09.03-.2.06-.64.16-1.62.6-2.91,1.31-1.07.59-1.85,1.49-2.46,2.84l-1.29,3c-.07.23-.21.7-.37,1.38.42-.18.86-.36,1.24-.52l.75-2,9.11-1.59.4.54c.37-.89.78-1.73,1.23-2.51l6.36-11.19Z"/>
  <path class="cls-1" d="M101.78,64.89c.34,1.04,1.33,1.56,2.97,1.58.06,0,.11-.01.17-.01-.29-1.03.05-2.43,1.07-4.22l10.4-19.22-2-2.94-.07.12-11.48,20.41c-1.04,1.82-1.39,3.25-1.04,4.29Z"/>
  <path class="cls-1" d="M134.18,40.45v-.02s-.06-.08-.06-.08l-.04.08-8.71,15.51-2.49,4.42c-1.12,1.98-2.45,3.84-4.01,5.59-1.57,1.75-3.31,3.27-5.25,4.57-1.94,1.3-3.71,2.21-5.33,2.73-1.07.34-2.17.59-3.3.75-1.25.17-2.54.25-3.88.23-1.48,0-4.26-.25-5.85-.61-.67-.15-1.47-.43-2.54-1.25-.19-.15-.39-.31-.6-.5-.09-.09-.16-.13-.19-.12,0,0-.01.02-.01.02-.11.16.51,1.49,1.79,2.67.18.17.38.34.59.5,2.18,1.66,4.81,1.75,6.03,1.83,1.31.09,3.21.1,5.07-.18,2.49-.36,4.34-.93,5.77-1.39,1.61-.53,3.68-1.72,5.62-3.03,1.94-1.29,3.69-2.82,5.25-4.57,1.56-1.75,2.89-3.61,4.01-5.59l9.93-18.58-1.8-3Z"/>
  <path class="cls-1" d="M89.83,51.67c-1.02.19-2.9.58-3.97.99-.34.13-1.15.27-3.61,1.62-2.12,1.17-3.86,2.96-4.76,4.93l-1.19,2.97c-.24.44-.62,2.08-.79,3.61-.02.18-.04.35-.06.53,0,.04,0,.1-.01.14-.11,1.55,3.45.53,3.62.42.02,0,0-.01-.04,0,.37-1.72.72-2.83.81-3.08l1.3-3.06c.58-1.26,1.55-2.26,3-3.06,2.37-1.3,2.95-1.56,3.07-1.61.83-.31,4.63-1.03,4.63-1.03l10.62-11.44-2.17-2.85-.05-.06s-9.66,10.08-10.39,10.98Z"/>
  <path class="cls-1" d="M89.1,68.14s-.01.02-.02.02c-1.98,1.57-3.79,2.83-5.38,3.67-1.76.93-3.25,1.63-4.4,2.08-4.35,1.71-6.3,2.25-8.5,1.93-.1-.01-3.18-.28-4.25-3.27l-.17.51c.06.43.17.94.31,1.53.37,1.49,1.71,2.74,2.15,3.11,2.75,2.28,7.78,1.18,11.8-.4,1.3-.51,2.87-1.24,4.78-2.26,1.92-1.01,4.07-2.48,6.4-4.38l.4-.32,1.28-4.17-2.49-3.51-.03-.04-.03-.04s-.01.03-.02.05c-1.04,2.95-1.41,4.17-1.63,4.88-.08.25-.13.43-.2.61Z"/>
  <path class="cls-1" d="M61.8,72.72c-.42,1.23-.72,2.09-.78,2.27,0,0-.01.01-.02.02-1.97,1.57-3.8,2.83-5.39,3.67-1.76.93-3.24,1.63-4.41,2.08-4.35,1.7-6.29,2.26-8.5,1.93-.12-.02-3.76-.33-4.49-4.16-.03-.15-.05-.3-.08-.46,0,0-.13,1.06.45,3.39.36,1.49,1.71,2.74,2.15,3.1,2.75,2.29,7.77,1.18,11.8-.39,1.3-.51,2.87-1.25,4.78-2.26,1.93-1.01,4.08-2.49,6.4-4.38l.41-.33,4.34-12.82-2.51-3.54-.04-.05c-1.02,2.91-3,8.68-4.11,11.91Z"/>
  <path class="cls-1" d="M47.77,57.2l-2.25-3.04s-.51.73-1.25,1.77l-5.13,7.55h-.03l-9.64,1.88-1.57,3.13,6.41-1.25-.05.1-3.2,6.35c-.42.86-.74,1.53-.86,1.76-.91.18-6.41,1.24-6.41,1.24l-5.43,12.26-2.55.51-11.49,2.33,1.47,3.67,14.72-3.05s5.3-11.57,5.68-12.32c.91-.18,6.4-1.24,6.4-1.24l4.29-8.33-2.04-2.41c2.74-.56,6.4-1.3,6.4-1.3l6.55-9.6Z"/>
  <path class="cls-1" d="M72.47,35.44c.25.02.48.02.72.02-.23.48-.23.82-.23.82,0,0,4.24,5.27,7.94.88,1.38-1.64,2.82-4.13,3.63-5.62,1.73-1.12,2.64-2.29,2.99-3.78.06-.25.1-.48.11-.69-.82,1.98-3.26,3.34-7.31,5.37-2.34,1.17-4.47,1.71-7.16,1.56-1.8-.11-2.5-1.4-2.34-2.63-1.25,1.34-.92,3.94,1.65,4.09ZM76.48,34.97c0,.05-.02.1-.02.15,0,.54.43.98.97.98s.98-.44.98-.98c0-.27-.11-.51-.28-.68.5-.18,1-.38,1.49-.57.23-.08.45-.18.66-.27.23.4.37.85.37,1.34,0,1.46-1.2,2.66-2.65,2.66-1.37,0-2.5-1.04-2.64-2.37.37-.07.74-.16,1.11-.26Z"/>
  <path class="cls-1" d="M88.93,24s-6.56-.33-12.37,2.52c-3.44,1.69-5.48,3.83-5.48,3.83,0,0,5.64-2.76,9.57-4.09,3.44-1.17,8.29-2.26,8.29-2.26Z"/>
  <path class="cls-1" d="M109.22,24.46s-3.53,5.03-6.82,7.96c-3.8,3.34-11.48,7.78-11.48,7.78,0,0,7.88-2.34,14.88-9.41,3.58-3.61,3.42-6.33,3.42-6.33Z"/>
  <path class="cls-1" d="M68.06,41.2c1.17,0,3.11-.29,3.11-.29l-1.65-.97s-2.63,1.26-1.46,1.26Z"/>
</svg>