<?xml version="1.0" encoding="UTF-8"?>
<svg id="Layer_1" data-name="Layer 1" xmlns="http://www.w3.org/2000/svg" viewBox="0 0 129.26 100">
  <defs>
    <style>
      .cls-1 {
        fill: #ccc;
      }
    </style>
  </defs>
  <path class="cls-1" d="M56.1,19.67c0-1.76-3.73.38-3.97.63-.75.77-.57,5.7-.54,7.78,0,.46.24,1.01.82,1.01.94,0,2.31.03,3.09,0,.3.03.58-.2.61-.5,0-.05,0-.12-.01-.17v-8.74Z"/>
  <path class="cls-1" d="M74.08,20.25v6.85c0,2.21,1.14,1.98,2.38,1.98.86,0,2.12.2,2.1-1.12v-6.71c.01-1.6-1.31-1.61-2.18-1.86-1.38-.41-2.3-.65-2.3.86Z"/>
  <path class="cls-1" d="M102.12,31.9c0-2.05,2.62-5.42,5.83-5.25v-12.42c-15.17-1.19-31.17-5.11-42.94-14.23-13.2,9.63-27.13,13.49-43.26,14.26v12.42c2.82.28,5.18,2.68,5.32,5.25H0v35.22h25.87s-.67,4.83-8.21,4.71c18.19,15.94,36.56,27.79,47.43,28.14,11.92-.52,30.38-13.48,47.1-28.33-3.13.17-7.49-1.27-8.08-4.54h25.16V31.9h-27.14ZM25.04,24.51v-7.41c14.79-.83,31.42-6.56,39.96-13.16,8.17,6.68,25.3,11.89,39.84,12.99v7.79c-2.96.62-5.96,4.64-5.96,7.21h-2.45c.24-4.87,2.96-7.23,5.96-8.85v-3.86c-12.95-.32-28.04-5.89-37.42-12.21-8.53,5.74-24.45,11.88-37.53,12.21v3.88c3.32,1.72,5.48,5.09,5.63,8.83h-2.57c-.56-3.86-2.76-5.91-5.46-7.42ZM94.01,31.94h-2.8c0-3.4-.66-3.47-2.3-3.45-1.19-.03-.86,0-2.25,0v3.45h-2.83v-12.9c3.91.83,8.54,1.57,9.31,2.42,1.43,1.57,1.1,5.66-.15,6.08,1.31.98,1.02,4.39,1.02,4.39ZM81.44,19.97v9.1c0,2.84-1.01,2.84-4.97,2.84-3.74,0-5.4,0-5.4-2.84v-11.31c0-4.11,3.33-2.35,5.86-1.35,2.39.95,4.51,1.35,4.51,3.56ZM59.24,16.93l.03-3.24s4.71-2.37,5.74-3.12c1.08.78,5.77,3.09,5.77,3.09l-.03,3.29-4.17-2.05v17.02h-3.27V14.91l-4.07,2.02ZM58.95,18.33v11.04c-.03,2.57-.9,2.5-5.26,2.53-3.58.03-4.76.08-4.8-3.52v-7.54c.07-2.86.81-2.71,4.06-4.34,5.07-2.46,5.86-1.63,6,1.83ZM43.63,27.1c-.81,1.47-1.51,3.28-2.18,4.64-.69-1.38-1.4-3-2.27-4.13l-.09,4.31h-2.96v-10.85c1.61-.28,2.09-.42,2.94-.56l2.33,5.04,2.45-6c1.01-.29,2.02-.52,3.06-.7v13.05h-2.94c0-1.63.08-4.36-.32-4.81ZM105.17,73.34c-17.66,14.59-28.83,21.72-40.15,23.21-11.77-1.64-23.17-8.69-40.27-23.08,2.38-1.06,4.79-3.53,4.77-6.35h2.7c.01,2.59-1.15,5.04-3.17,6.64,12,10.74,28.17,19.88,36.13,20.41,8.08-.53,23.82-10.28,35.86-20.49-2.42-2.14-3.11-3.95-3.12-6.55h2.38c.21,3.11,3.5,5.62,4.88,6.2ZM39.28,74.7l.22.19,4.64,2.7.11.48v3.66l-7.76-5.12c-.61-.44-.97-1.12-.97-1.88v-5.22c.03-1.34,1.14-2.38,2.46-2.35h4.99v2.87h-3.48c-.32,0-.58.25-.6.57v3.61c.03.22.17.42.38.5ZM44,67.15h3.61l1.8,4.95h.22l2.2-4.95h3.6l-4.56,8.89v9.52l-3.31-1.92v-7.57l-3.56-8.93ZM59.97,86.35l1.19.42,3.16,1.18v.03h-.04v3.27c-5.54-1.8-6.92-2.51-7.43-2.94-.62-.44-.99-1.14-.99-1.89v-16.9c.03-1.34,1.14-2.38,2.46-2.35h6v2.87h-3.95c-.6-.01-1.08.45-1.1,1.04v14.3c.01.44.29.83.7.98ZM65.94,91.06v-23.91h3.39v19.96s4.54-1.43,4.54-1.43v3.12c-2.53,1.1-5.2,1.86-7.92,2.26ZM79.08,70c-.58-.01-1.06.45-1.07,1.03v.46s.01,2.65.01,2.65h3.56v2.76h-3.56v4.21s-.26,1.8,1.12,1.01l3.58-2.01v3.45s-4.21,2.59-4.93,3.04c-.17.12-3.08,1.53-3.15-1.72v-15.38c.03-1.34,1.14-2.38,2.46-2.35h5.57v2.87h-.01s-3.58-.01-3.58-.01ZM89.21,74.75h-3c-.97.04-1.77-.71-1.8-1.68v-4.25c0-.93.89-1.69,1.98-1.69h7.18v2.87h-5.3c-.28,0-.52.22-.53.52v.69c.01.28.24.5.53.5h3.64c1.01-.04,1.86.74,1.9,1.75v2.53c-.22,1.47-9.39,6.52-9.39,6.52l-.03-3.43,3.86-2.18c3.93-2.22.95-2.14.95-2.14ZM126.12,63.71H3.31v-28.49h122.81v28.49Z"/>
  <path class="cls-1" d="M86.68,22.62v3c1.85.09,2.31.11,3.6.19,1.03,0,.79-2.02.5-2.39-.21-.32-2.54-.62-4.1-.79Z"/>
  <path class="cls-1" d="M110.44,68.67c-.41.42-.42,1.11,0,1.52.42.42,1.11.42,1.52,0,.2-.2.32-.48.32-.77.01-.28-.11-.56-.32-.75-.42-.42-1.11-.42-1.52,0ZM111.85,70.08c-.36.37-.95.37-1.32,0-.17-.17-.28-.41-.26-.66,0-.52.4-.93.91-.94.26,0,.5.11.67.28.37.36.37.95,0,1.32Z"/>
  <path class="cls-1" d="M110.73,68.8v1.19l.04.03h.19v-.46h.16c.08,0,.16.01.22.04.08.07.12.17.11.26v.16h.2v-.28c0-.07-.03-.13-.07-.19-.05-.07-.12-.11-.21-.12.07-.01.12-.03.17-.05.08-.05.12-.15.12-.24.01-.13-.07-.25-.19-.3-.11-.04-.21-.05-.32-.04h-.42ZM111.43,69.32s-.04.04-.07.05h0c-.07.03-.13.03-.2.03h-.21v-.42h.19c.09,0,.17.01.25.04.09.07.12.2.04.3Z"/>
  <path class="cls-1" d="M123.73,37.63H6v23.83h117.72v-23.83ZM16.94,58.62h-2.7v-7.5h-1.92v7.5h-2.72v-18h2.68s.01,6.85.01,6.85h1.96v-6.85h2.68v18ZM23.15,58.62c-.21-1.6-.42-3.28-.56-4.31h-1.85l-.5,4.31h-2.57c.62-5.93,1.27-11.85,1.84-18h4.17c.7,5.82,1.32,11.67,1.97,18h-2.5ZM33.88,58.64h-1.77c-.32,0-1.1-.26-1.08-.79v-4.91c0-1.11-.66-1.23-1.28-1.23h-.48v6.9h-2.91l.04-18h4.55c2.62,0,2.92,3.08,2.92,4.97,0,.86.07,2.47-1.35,3.89.89.79,1.35,1.43,1.36,3.39v5.78ZM40.48,58.62h-5.57v-18h2.87v15h2.7v3ZM46.63,47.65v3.15h-2.7v4.79h2.68v3.03h-5.54v-18h5.57v2.84s-2.71,0-2.71,0v4.19h2.7ZM52.35,58.46h-2.71v-7.29c-.9-3.54-1.93-7-2.66-10.54h2.8c.36,1.89.67,3.77,1.24,5.87.61-2.12.77-3.86,1.36-5.87h2.66c-.74,3.8-1.72,7.08-2.7,10.59v7.23ZM59.53,50.8h-4.95v-2.24h4.95v2.24ZM64.79,58.62h-4.05v-18h4.68c1.4,0,2.37.99,2.38,3.09,0,3.82,0,8.45.03,11.7.04,1.72-1.32,3.16-3.04,3.2ZM73.93,58.46c-.3-1.45-.42-2.87-.69-4.35h-1.92l-.53,4.35h-2.57c.53-5.95,1.55-12.06,2.14-18h3.86l2.24,18h-2.54ZM80.95,58.47h-2.87l-2.38-18h2.74c.33,3.49.69,7.17,1.06,10.66,0,0,.86-7.51,1.28-10.66h2.67l-2.5,18ZM83.97,58.47v-18h2.71v18s-2.71,0-2.71,0ZM95.07,55.54c0,1.93-1.16,2.94-3.47,2.94h-3.73v-18h4.27c1.36,0,2.92.79,2.92,3.17v11.89ZM99.68,58.79c-3.28,0-3.73-1.48-3.73-7.08h2.71v2.72s-.09,1.6,1.02,1.6c.67,0,.93-.56.93-2.14,0-1.81-.53-2.38-1.14-2.83-1.2-.91-3.49-1.81-3.49-4.6,0-2.53-.4-6.35,3.73-6.31,2.45.03,3.48,1.38,3.47,3.11v3.52h-2.68c0-2.21,0-3.65-1.06-3.58-.91,0-.75,1.06-.77,1.85,0,2.35,1.22,2.79,2.45,3.7,1.64,1.23,2.21,2.02,2.22,5.5,0,2.57-.86,4.54-3.65,4.54ZM111.43,55.43c0,1.89-1.83,3.52-3.7,3.49-1.56-.03-3.5-.86-3.5-3.53v-11.57c0-3.47,2.21-3.78,3.74-3.8,1.42-.01,3.47.54,3.47,3.86v11.55ZM120.28,58.31h-3.17c-.61-3.36-1.19-6.51-1.85-9.88l.08,9.88h-2.86v-17.84h3.45c.6,2.75,1.14,5.57,1.75,8.25l-.11-8.25h2.71v17.84Z"/>
  <path class="cls-1" d="M71.64,50.75h1.22c-.08-2.14-.29-4.29-.62-6.43l-.6,6.43Z"/>
  <path class="cls-1" d="M63.46,43.34v12.25h.97c.42-.05.71-.44.66-.85h0c0-2.22-.03-9.87-.03-10.55,0-1.22-1.6-.85-1.6-.85Z"/>
  <path class="cls-1" d="M21.17,50.76h1.04c-.2-2.27-.34-4.15-.73-6.49l-.32,6.49Z"/>
  <path class="cls-1" d="M29.26,43.47v4.77h1.06c.28,0,.6-.21.58-.93.03-.82,0-2.06,0-2.84.01-.99-.58-.99-1.64-1.01Z"/>
  <path class="cls-1" d="M91.63,43.33h-.89v12.26c1.59,0,1.77-.07,1.79-.86v-10.41c-.01-.52-.4-.94-.9-.99Z"/>
  <path class="cls-1" d="M106.77,43.94v10.71c0,1.55,1.89,1.97,1.89.26v-10.96c.03-1.22-1.88-1.26-1.89-.01Z"/>
</svg>