<?xml version="1.0" encoding="UTF-8"?>
<svg id="Layer_1" data-name="Layer 1" xmlns="http://www.w3.org/2000/svg" viewBox="0 0 103.11 100">
  <defs>
    <style>
      .cls-1 {
        fill: #ccc;
      }
    </style>
  </defs>
  <path class="cls-1" d="M103.01,72.35l-6.13-18.42,6.13-18.42c.2-.6.1-1.27-.27-1.79-.37-.52-.97-.82-1.61-.82h-9.02v-8.66c0-.71-.38-1.36-.99-1.72L52.54.27c-.3-.17-.64-.27-.99-.27s-.69.09-.99.27L11.99,22.53c-.61.35-.99,1.01-.99,1.72v8.66H1.98c-.64,0-1.24.31-1.61.82-.37.52-.47,1.18-.27,1.79l6.13,18.42L.1,72.35c-.2.6-.1,1.27.27,1.79.37.52.97.82,1.61.82h9.02v.79c0,.71.38,1.36.99,1.72l38.57,22.27c.3.17.64.27.99.27s.69-.09.99-.27l38.57-22.27c.61-.35.99-1.01.99-1.72v-.79h9.02c.64,0,1.24-.31,1.61-.82.37-.52.47-1.18.27-1.79ZM90.12,72.98v2.77l-38.57,22.27-38.57-22.27v-2.77H1.98l6.34-19.04L1.98,34.89h11v-10.64L51.55,1.98l38.57,22.27v10.64h11l-6.34,19.04,6.34,19.04h-11Z"/>
  <path class="cls-1" d="M69.36,16.25c-.04.31-.19.57-.41.76.21.17.41.34.6.53.04.04.08.08.12.12l15.93,9.2v7.27c.82-.2,1.6-.43,2.25-.71v-7.87l-19.31-11.15c.51.5.89,1.11.8,1.84Z"/>
  <path class="cls-1" d="M17.49,34.11v-7.25l14.26-8.23c2.24-3.51,5.13-4.33,5.29-4.37.15-.04.3-.05.45-.03.05,0,.09.02.14.03,2.13-2.07,4.15-2.35,5.5-2.2l1.42-.82c-.07-.33-.12-.7-.08-1.12.11-1.08.55-1.65.91-1.94.4-.32.89-.46,1.38-.4.39.05.76.23,1.02.5.24.25.38.54.48.81l3.28-1.89,5.45,3.15c.58-.02,1.15-.01,1.7.04.18.01.36.03.53.06,1.46.18,2.98.58,4.42,1.15l-12.11-6.99L15.24,25.55v7.83c.66.28,1.43.52,2.25.72Z"/>
  <path class="cls-1" d="M84.65,73.7l-33.1,19.11-33.08-19.1c-1.11.22-2.16.5-3.03.85l36.11,20.85,36.14-20.87c-.88-.35-1.93-.63-3.04-.85Z"/>
  <path class="cls-1" d="M28.36,28.33c.17-.17.38-.25.51-.47.12-.21.21-.48.11-.72-.15-.39-.48-.25-.75-.07-.28.19-.58.39-.77.62-.35.42-.4.99-.46,1.52-.09.77-.34,1.51-.43,2.27-.03.24,0,.48.07.71.04.13.12.42.25.48.05.02.09,0,.14-.02.17-.1.35-.46.42-.56.19-.3.39-.52.3-.88-.07-.3-.14-.58-.13-.9.02-.7.32-1.36.7-1.94.01-.02.02-.04.04-.05Z"/>
  <path class="cls-1" d="M27.7,34.08c-.05.23-.1.46-.15.7,0,.01-.02.02-.03.02-.02,0-.03-.01-.03-.03,0-.45,0-.9,0-1.34,0-.12,0-.24.01-.37-.1.13-.46.68-.51,1.83h.89c-.07-.27-.13-.54-.18-.81Z"/>
  <path class="cls-1" d="M30.87,34.01s-.06,0-.09,0c-.49-.06-.91-.31-1.18-.71-.04-.06-.07-.13-.11-.2.02.14.04.29.07.44.07.34.16.67.27,1.01h0s0,.06-.03.07c-.03.02-.07.01-.09-.02-.19-.3-.38-.6-.54-.92-.08-.16-.16-.32-.23-.5-.05-.11-.09-.23-.12-.37-.28-.3-.5-.59-.66-.88-.12.08-.21.2-.25.4-.07.4,0,1.16.08,1.55.07.34.17.67.3,1h2.43c.03-.29.07-.59.15-.88Z"/>
  <path class="cls-1" d="M29.18,32.43c-.29-.91-.19-1.85-.06-2.7l.05-.33c.05-.35.11-.71.17-1.07-.09-.03-.25,0-.47.35-.93,1.42-.76,2.47.12,3.62.04.08.11.13.19.13Z"/>
  <path class="cls-1" d="M22.95,34.18c-.09.15-.16.41-.23.71h1.43c.21-.85.2-1.22.2-1.46-.05.06-.09.13-.14.19-.25.37-.49.74-.73,1.12,0,.01-.03.02-.04.01-.02,0-.03-.03-.02-.05.15-.4.3-.8.46-1.2-.33.11-.73.32-.93.67Z"/>
  <path class="cls-1" d="M20.76,28.91c-.07.11-.05.14.04.19.51.21,1.05.42,1.6.48.74.08,1.05-.62,1.54-1.04.26-.22.52-.48.86-.59.26-.08.92-.31.5-.64-.11-.08-.32-.17-.49-.28-.19.04-.37.09-.56.14-.24.07-.47.14-.71.23-.23.09-.46.19-.69.29-.02.01-.06,0-.07-.02-.02-.03,0-.06.02-.08h0c.21-.13.43-.27.65-.39.22-.13.46-.23.69-.33.14-.06.28-.12.42-.17-.07-.24-.22-.5-.13-.79,0,0-2.19.16-3.68,3.01Z"/>
  <path class="cls-1" d="M20.22,30.93c-.22.47-.39.96-.56,1.45-.15.43-.3.92-.11,1.36.23.55,2.15-.63,2.42-.83.12-.09.29-.19.38-.31.08-.11.05-.24.06-.36v-.09c.06-.54.15-1.13.35-1.71-.03.02-.06.04-.1.07-.15.11-.29.22-.42.34-.14.12-.27.25-.4.38-.13.13-.26.26-.39.4-.02.02-.05.02-.07,0-.03-.02-.03-.05-.02-.08h0c.1-.16.2-.32.31-.47.11-.16.22-.31.33-.46.12-.15.24-.3.37-.44.02-.02.05-.05.07-.07-.15-.02-.28-.04-.31-.04-.36-.03-.76-.13-1.1,0-.37.15-.62.47-.8.85Z"/>
  <path class="cls-1" d="M22.4,33.95c-.08.07-.17.15-.25.23-.13.13-.25.27-.37.41-.06.07-.12.15-.17.22.24.03.48.06.72.08,0-.07.02-.14.03-.21,0-.05.05-.45.04-.73Z"/>
  <path class="cls-1" d="M21.52,34.4c.09-.17.19-.33.3-.49,0-.01.02-.03.03-.04-.38.16-.74.33-1.09.53-.13.07-.23.16-.32.25.3.04.6.08.9.12.06-.12.13-.25.19-.37Z"/>
  <path class="cls-1" d="M25.07,33.32c-.4.37-.37,1.03-.46,1.57h.96c.04-.28.09-.55.13-.83.05-.38.09-.76.11-1.14-.27.08-.54.21-.73.4Z"/>
  <path class="cls-1" d="M26.59,33.32c-.03-.07-.1-.18-.18-.28-.11.38-.23.75-.37,1.11-.09.25-.2.5-.3.75h1.07c.05-.53.01-1.1-.22-1.57Z"/>
  <path class="cls-1" d="M27.17,27.24c.24-.05.34-.25.52-.4.18-.16.39-.29.59-.42.04-.03.1-.06.15-.1-.1-.07-.24-.12-.39-.17-.16-.05-.32-.09-.49-.12-.34-.07-.68-.12-1.02-.17-.03,0-.05-.02-.05-.05,0-.03.02-.06.05-.06.35-.02.7-.04,1.05-.04.18,0,.36,0,.54.02.12.01.25.03.38.06-.55-.39-1.67-.84-3.23.28-.25.18.25.59.37.68.19.16.41.29.64.37.27.09.6.17.89.11Z"/>
  <path class="cls-1" d="M26.22,28.33c-.41.53-.8,1.09-1.17,1.65h0s-.04.03-.07.02c-.03-.01-.04-.04-.03-.07.14-.35.29-.69.44-1.03.12-.27.25-.54.38-.81-.03,0-.05-.01-.08-.01-.04,0-.09,0-.13,0-.42.05-.77.34-1.1.57-1.16.81-1.47,2.14-1.57,3.49-.03.37-.13.95.45.8.53-.14,1.15-.41,1.6-.72.21-.15.49-.35.62-.58.43-.73.92-2.38.87-2.9-.02-.16-.1-.31-.21-.42Z"/>
  <path class="cls-1" d="M74.14,32.17c.02.13.04.26.05.39.06.48.1.95.14,1.43,0,.02-.01.03-.03.04-.02,0-.03,0-.04-.02-.08-.24-.15-.48-.23-.72-.05.55-.12,1.1-.27,1.62h1.17c-.06-1.81-.66-2.57-.8-2.72Z"/>
  <path class="cls-1" d="M72.8,31.87c-.04.06-.07.11-.12.17-.01.07-.03.14-.05.2.11.2.22.4.3.6.2.47.39,1.08.42,1.69.15-.47.27-.95.32-1.44.03-.3.04-.78,0-1.19-.24,0-.53,0-.87-.03Z"/>
  <path class="cls-1" d="M79.06,32.9c-.24-.35-.7-.53-1.05-.61.21.41.41.82.61,1.23,0,.02,0,.04-.02.05-.02,0-.04,0-.05-.01-.29-.38-.59-.75-.89-1.11-.05-.06-.11-.13-.16-.19.04.32.06.88.73,2.44.04.07.08.13.12.2h1.34c-.14-.76-.38-1.64-.62-1.99Z"/>
  <path class="cls-1" d="M78.41,26.29c-.26-.08-.51-.17-.76-.24-.26-.07-.51-.12-.77-.17-.2-.03-.4-.06-.6-.09-.17.14-.39.25-.49.35-.41.39.32.56.6.62.37.08.67.33.97.54.56.39.96,1.11,1.74.94.58-.12,1.13-.4,1.65-.68.1-.05.11-.09.02-.2-1.87-2.87-4.21-2.82-4.21-2.82.13.29,0,.59-.06.85.16.05.31.09.47.14.26.08.52.17.77.28.25.11.49.23.73.35h0s.04.05.03.08c-.01.03-.04.04-.07.03Z"/>
  <path class="cls-1" d="M80.4,30.25c-.16-.13-.3-.26-.46-.39-.15-.12-.31-.25-.47-.36-.16-.11-.32-.22-.49-.32-.04-.02-.08-.04-.11-.06.27.59.42,1.21.53,1.78l.02.09c.03.13.01.27.1.37.11.12.29.21.43.29.3.18,2.46,1.24,2.65.63.15-.49-.05-.99-.26-1.43-.23-.5-.46-1.01-.74-1.48-.23-.39-.53-.7-.94-.82-.38-.11-.79.03-1.17.1-.03,0-.17.04-.33.08.03.02.06.04.08.07.16.14.3.28.44.43.14.15.27.3.4.45s.26.32.37.47h0s.02.07,0,.09c-.02.02-.06.02-.08,0Z"/>
  <path class="cls-1" d="M82.5,34.11c-.19-.56-.4-1.06-.98-1.31-.4-.18-.8-.32-1.22-.45.01.01.02.03.03.04.13.16.25.32.37.49.23.33.44.68.64,1.02h0s0,.07-.02.09c-.02.01-.06,0-.07-.01-.13-.15-.26-.3-.4-.45-.13-.15-.27-.29-.41-.42-.14-.14-.28-.27-.43-.39-.09-.08-.19-.15-.29-.22.02.3.11.73.12.77.09.37.16.75.27,1.12.05.17.1.35.17.52h.52c.61-.06,1.24-.14,1.88-.23-.08-.27-.16-.5-.18-.56Z"/>
  <path class="cls-1" d="M77.54,34.09c-.25-.59-.19-1.51-.74-1.94-.23-.18-.52-.29-.82-.35.06.4.14.8.23,1.2.11.46.23.92.35,1.38,0,.01,0,.03-.02.03-.01,0-.03,0-.03-.01-.23-.42-.45-.84-.65-1.28-.18-.37-.35-.75-.5-1.14-.08.11-.14.24-.17.32-.26.68-.15,1.5.04,2.18.04.13.08.27.12.4h2.56c-.13-.27-.26-.53-.37-.8Z"/>
  <path class="cls-1" d="M73.29,24.6c.08,0,.15-.02.23-.03.37-.04.75-.05,1.12-.06.03,0,.06.02.06.06,0,.03-.02.05-.05.06-.36.09-.72.18-1.07.29-.15.05-.31.1-.45.16.27.32.53.65.76,1.01.06.04.13.06.21.07.31.03.66-.08.93-.21.24-.11.46-.27.65-.46.11-.12.61-.6.32-.76-.92-.54-1.67-.63-2.26-.54-.09.13-.24.29-.46.42Z"/>
  <path class="cls-1" d="M76.51,31.28c.51.28,1.19.51,1.77.6.63.1.46-.51.39-.9-.25-1.42-.71-2.79-2.03-3.54-.38-.21-.78-.49-1.22-.49-.05,0-.09,0-.14.01-.03,0-.06.02-.09.02.17.27.33.54.49.82.2.35.39.69.58,1.05.01.03,0,.07-.03.08-.03.01-.06,0-.08-.02h0c-.45-.56-.92-1.12-1.41-1.64-.05.07-.1.14-.13.22.66,1.49.8,2.14.85,2.57,0,.05.01.11.02.19.1.18.2.35.3.49.17.23.48.42.72.55Z"/>
  <path class="cls-1" d="M50.9,87.84c.05-.45-.95-.91-2.21-1.04-1.26-.12-2.4.58-2.37.58.03,0,.94.91,2.21,1.04,1.26.13,2.32-.13,2.37-.58Z"/>
  <path class="cls-1" d="M51.22,87.28c.38-.24.16-1.3-.51-2.39-.66-1.08-1.88-1.51-1.9-1.54-.02-.03-.16,1.3.51,2.39.66,1.08,1.51,1.77,1.9,1.53Z"/>
  <path class="cls-1" d="M48.12,86.09c.04-.45-.94-.91-2.21-1.04-1.26-.13-2.4.58-2.37.58.03,0,.94.91,2.21,1.04,1.26.13,2.32-.13,2.37-.58Z"/>
  <path class="cls-1" d="M48.43,85.53c.38-.24.16-1.31-.51-2.39-.66-1.08-1.88-1.51-1.9-1.54-.02-.03-.16,1.3.51,2.39.66,1.08,1.51,1.77,1.9,1.54Z"/>
  <path class="cls-1" d="M45.33,84.34c.04-.45-.94-.91-2.21-1.04-1.26-.12-2.4.58-2.37.59.03,0,.94.91,2.21,1.04,1.27.13,2.32-.13,2.37-.58Z"/>
  <path class="cls-1" d="M45.64,83.78c.39-.24.16-1.3-.51-2.39-.67-1.08-1.88-1.51-1.9-1.53-.02-.03-.15,1.3.51,2.39.66,1.08,1.51,1.77,1.9,1.53Z"/>
  <path class="cls-1" d="M42.54,82.59c.04-.45-.95-.91-2.21-1.04-1.26-.13-2.4.58-2.37.58.03,0,.94.91,2.21,1.04,1.26.13,2.32-.14,2.37-.58Z"/>
  <path class="cls-1" d="M42.86,82.03c.38-.23.16-1.3-.51-2.39-.66-1.08-1.88-1.51-1.9-1.53-.02-.03-.16,1.3.51,2.39.66,1.08,1.51,1.77,1.9,1.53Z"/>
  <path class="cls-1" d="M37.39,81.42c1.26.13,2.32-.13,2.37-.58.04-.45-.94-.91-2.21-1.04-1.07-.11-2.05.38-2.3.54l-12.63-7.21c-.05,0-.1.01-.15.02l12.79,7.31c.25.2,1.06.87,2.13.97Z"/>
  <path class="cls-1" d="M37.65,76.42c-.03.27-.05,1.39.52,2.32.66,1.08,1.51,1.77,1.9,1.54.38-.24.15-1.3-.51-2.39-.49-.81-1.29-1.25-1.67-1.43h0s-6-3.48-6-3.48h-.18l5.94,3.44Z"/>
  <path class="cls-1" d="M27.02,72.98l7.74,4.49c.06.11.43,1,1.23,1.47.86.51,1.69.66,1.85.34.17-.32-.39-.99-1.24-1.5-.67-.4-1.45-.39-1.73-.36l-7.67-4.45h-.18Z"/>
  <path class="cls-1" d="M54.57,88.43c1.26-.13,2.18-1.04,2.21-1.04.03,0-1.1-.71-2.37-.58-1.26.13-2.25.59-2.21,1.04.04.45,1.11.71,2.37.58Z"/>
  <path class="cls-1" d="M53.79,85.75c.67-1.08.52-2.42.51-2.39-.02.03-1.23.45-1.9,1.54-.66,1.08-.89,2.15-.51,2.39.38.23,1.24-.45,1.9-1.53Z"/>
  <path class="cls-1" d="M57.36,86.68c1.26-.13,2.17-1.04,2.21-1.04.03,0-1.1-.71-2.37-.58-1.26.12-2.25.59-2.21,1.04.05.45,1.1.71,2.37.58Z"/>
  <path class="cls-1" d="M56.57,84c.67-1.08.52-2.42.51-2.39-.02.03-1.23.45-1.9,1.54-.66,1.08-.89,2.15-.51,2.39.38.23,1.23-.45,1.9-1.54Z"/>
  <path class="cls-1" d="M60.15,84.92c1.26-.13,2.17-1.04,2.21-1.04.03,0-1.1-.71-2.37-.59-1.26.13-2.25.59-2.21,1.04.04.45,1.11.71,2.37.58Z"/>
  <path class="cls-1" d="M59.36,82.25c.66-1.09.53-2.42.51-2.39-.02.03-1.23.45-1.9,1.53-.66,1.08-.89,2.15-.51,2.39.38.24,1.23-.45,1.9-1.53Z"/>
  <path class="cls-1" d="M62.93,83.17c1.26-.13,2.18-1.04,2.21-1.04.03,0-1.11-.71-2.37-.58-1.26.13-2.25.59-2.21,1.04.04.45,1.11.71,2.37.58Z"/>
  <path class="cls-1" d="M62.15,80.49c.66-1.08.53-2.41.51-2.39-.02.03-1.23.45-1.9,1.53-.66,1.08-.89,2.15-.51,2.39.38.24,1.23-.45,1.9-1.53Z"/>
  <path class="cls-1" d="M65.72,81.42c1.07-.11,1.88-.77,2.13-.97l12.81-7.32c-.05,0-.1-.01-.15-.01l-12.64,7.22c-.25-.15-1.23-.64-2.3-.54-1.26.13-2.25.59-2.21,1.04.05.45,1.11.71,2.37.58Z"/>
  <path class="cls-1" d="M66.51,77.78c-.86.51-1.41,1.18-1.24,1.5.17.32,1,.17,1.85-.34.8-.48,1.17-1.36,1.23-1.47l7.74-4.49h-.18l-7.67,4.45c-.29-.03-1.06-.04-1.73.36Z"/>
  <path class="cls-1" d="M65.22,76.45h0c-.39.19-1.18.63-1.68,1.44-.66,1.08-.89,2.15-.51,2.39.38.24,1.23-.45,1.9-1.54.57-.94.55-2.05.52-2.32l5.94-3.44h-.18l-6,3.47Z"/>
  <path class="cls-1" d="M98.8,36.57h-26.37c.27.57.46,1.13.58,1.67h23.47l-.46,1.39h-2.09l-.81,2.1h2.19l-.4,1.2h-2.12l-.8,2.1h2.22l-.4,1.2h-2.14l-.81,2.1h2.25l-.4,1.2h-2.17l-.81,2.1h2.27l-.4,1.2h-1.89l-.81,1.05.81,1.05h1.85l.38,1.15h-2.28l.81,2.1h2.18l.4,1.2h-2.26l.81,2.1h2.15l.4,1.2h-2.23l.81,2.1h2.13l.4,1.2h-2.21l.81,2.1h2.1l.52,1.56H6.63l.52-1.56h2.1l.81-2.1h-2.21l.4-1.2h2.13l.81-2.1h-2.23l.4-1.2h2.15l.81-2.1h-2.26l.4-1.2h2.18l.81-2.1h-2.28l.38-1.15h1.85l.81-1.05-.81-1.05h-1.89l-.4-1.2h2.27l-.81-2.1h-2.17l-.4-1.2h2.25l-.81-2.1h-2.14l-.4-1.2h2.22l-.81-2.1h-2.11l-.4-1.2h2.19l-.81-2.1h-2.09l-.46-1.39h24.04c-.05-.5-.05-1.07-.04-1.67H4.3l5.78,17.37-5.78,17.37h94.5s-5.78-17.37-5.78-17.37l5.78-17.37Z"/>
  <path class="cls-1" d="M55.1,36.57h-.38c-.64,1.17-1.55,1.21-1.94,1.16-.37-.04-.72-.21-1.04-.48-.25-.22-.52-.45-.78-.68h-1.93c-.32.36-.67.69-1,.92-.3.22-.66.31-1.02.27-.68-.08-1.15-.63-1.37-1.12-.01-.02-.02-.05-.03-.07h-.45c-.15.23-.31.45-.51.66l-.11.11c-.3.31-.6.61-.9.9h12.75c-.56-.54-1-1.11-1.3-1.67Z"/>
  <polygon class="cls-1" points="48.78 79.9 50 79.9 49.85 79.27 49.85 78.08 49.91 78.02 50.44 78.02 50.91 78.18 50.91 77.11 50.44 77.27 49.91 77.27 49.85 77.2 49.85 76.33 49.91 76.27 51.04 76.27 51.6 76.45 51.29 75.51 48.78 75.51 48.91 76.01 48.91 79.4 48.78 79.9"/>
  <polygon class="cls-1" points="51.97 79.9 54.41 79.9 54.76 78.86 54.1 79.08 53.13 79.08 53.04 78.99 53.04 76.14 53.19 75.51 51.97 75.51 52.1 76.01 52.1 79.4 51.97 79.9"/>
  <path class="cls-1" d="M51.52,88.34c.22,0,.4-.18.4-.4s-.18-.4-.4-.4-.4.18-.4.4.18.4.4.4Z"/>
  <path class="cls-1" d="M46.72,13.7c.13.24.28.47.41.71.22.41.91.04,1.15-.1.34-.19.82-.53.75-1.02-.03-.19-.17-.37-.31-.56-.17-.23-.34-.46-.5-.7-.39-.61-.67-1.27-.89-1.96-.09-.28-.17-.75-.39-.97-.31-.31-1.15-.24-1.28,1.13-.04.4.06.79.16,1.18.2.78.51,1.59.9,2.29Z"/>
  <path class="cls-1" d="M44.6,15.58c-.49.47-1,.98-1.28,1.51-.53.97-.41,2.11-.34,3.17.11,1.55-.12,3.1-.01,4.66.03.48.17.96.41,1.38.13.23.39.79.67.85.1.02.19-.02.27-.09.3-.27.52-1.04.61-1.27.27-.66.58-1.16.27-1.86-.25-.57-.49-1.1-.59-1.72-.23-1.39.12-2.81.65-4.1.02-.04.04-.08.06-.11.28-.4.66-.64.83-1.12.16-.46.23-1.03-.05-1.46-.45-.71-1.03-.31-1.5.14Z"/>
  <path class="cls-1" d="M63.33,33.56c-1.78-.18-3.13-.42-4.17-.67.07.19.15.38.23.57.38.89.81,1.76,1.37,2.55h0s.02.09,0,.12c-.04.04-.09.04-.13,0-.74-.67-1.36-1.47-1.93-2.29-.3-.43-.58-.88-.85-1.34-1.46-.5-1.83-.95-1.83-.95,0,0-.72,1.37-.07,3.95.64,2.5,6.53,5.64,8.33,5.5.06,0,.19-.18.2-.25.49-3.22-1.14-7.19-1.14-7.19Z"/>
  <path class="cls-1" d="M48.88,34.78c.09-.18.13-.34.11-.5-.05-.52-.61-.95-.93-1.41-.7-1-1.21-2.14-1.66-3.3-.02.48-.03.96-.04,1.43,0,.03-.02.05-.05.06-.03,0-.07-.02-.07-.05-.18-.88-.35-1.77-.5-2.66-.04-.24-.07-.49-.11-.73-.23.46-1.31,3.08,1.1,8.53.07.16.34.57.6.37.54-.39,1.23-1.17,1.54-1.74Z"/>
  <path class="cls-1" d="M54.37,33.42c.17-2.69-1.24-5.07-2.26-7.46-.15-.35-.27-.79-.44-1.17-.11-.24-.25-.47-.45-.64-.02-.01-.03-.02-.05-.04-.32.77-.93,1.59-2.02,2.29.03.16.07.32.13.49.1.32.22.64.35.95.27.64.58,1.27.91,1.89h0c.03.05.02.11-.02.15-.05.05-.13.05-.18,0-.49-.52-.97-1.05-1.42-1.62-.23-.28-.44-.58-.65-.9-.13-.21-.26-.43-.38-.68-.65-.48-1.2-.98-1.64-1.49-.21.19-.35.47-.34.88.01.81.44,2.29.74,3.04,1.15,2.88,3.53,5.23,5.84,7.2.59.5,1.02.03,1.28-.59.31-.73.53-1.54.58-2.33Z"/>
  <path class="cls-1" d="M47.58,21.06s-.03-.01-.03-.03c-.07-.58-.16-1.15-.26-1.72-.09-.54-.2-1.07-.31-1.61-.2-.05-.51.04-.83.86-1.32,3.16-.58,5.17,1.58,7.12.16.2.39.26.61.11,3.37-1.67,2.49-4.33,2.49-4.33-1.27-.86-2.16-1.74-2.75-2.42-.02.09-.03.19-.06.28-.12.57-.26,1.14-.41,1.71,0,.01-.01.02-.03.02Z"/>
  <path class="cls-1" d="M70.1,31.23c-.71-.28-1.48-.3-2.21-.51-.03,0-.05-.02-.08-.03.37.53.78,1.04,1.3,1.43h0s.04.06.03.09c-.01.04-.06.06-.1.05-.66-.22-1.25-.62-1.8-1.03-.28-.21-.55-.43-.81-.66-.26-.22-.53-.48-.77-.7h0s-.01-.02-.02-.03c-.21-.09-.41-.18-.6-.26-.67-.28-.83-.27-.63.37.11.36.44,1.03.62,1.36,1.01,1.85,3.21,3.38,5.18,3.95.54.15,1.67.41,1.86-.04.46-1.1-.86-3.53-1.97-3.97Z"/>
  <path class="cls-1" d="M71.02,36.45c-1.61.03-4.73-2.73-5.76-3.69.34.86.77,1.69,1.24,2.5.5.82,1.04,1.63,1.71,2.34.03.03.03.08.01.11-.03.04-.08.05-.12.02-.83-.56-1.55-1.26-2.23-2-.41-.45-.81-.92-1.18-1.42,0,.82.13,1.89.58,3.23,1.78,3.7,5.12,4.21,6.24,4.27.24.01.42-.14.46-.4.14-.86.3-2.95-.95-4.97Z"/>
  <path class="cls-1" d="M68.73,18.39c-1.9-1.82-4.52-2.5-7.09-2.52-.48,0-1.1-.11-1.58.05-.02,0-.04.02-.06.02.31.11.61.24.89.38.46.23.89.48,1.31.75.84.54,1.63,1.13,2.39,1.77.04.04.05.1.02.15-.03.05-.1.07-.15.03h0c-.82-.53-1.67-1.01-2.55-1.42-.82-.38-1.68-.73-2.52-.85,0,.06,0,.11.01.17.05.26.25.52.38.74.48.77,1.03,1.48,1.59,2.19.73.92,1.58,1.63,2.72,1.96,1.38.4,2.81.41,4.22.66,1.33.24,2.65.97,3.99,1.13,1.27.15-.21-1.58-.48-1.92-.95-1.18-2-2.25-3.1-3.3Z"/>
  <path class="cls-1" d="M53.52,22.64c-.06,0-.11,0-.16-.01.56.66,1.12,1.32,1.65,2,.65.82,1.29,1.65,1.91,2.5.03.04.03.1,0,.14-.04.04-.11.05-.16,0-.76-.71-1.54-1.41-2.32-2.09-.73-.63-1.47-1.24-2.23-1.84-.23,1.21,1.14,3.56,1.5,4.16.8,1.34,1.82,2.52,3.17,3.32,1.29.77,2.78,1.18,4.25,1.48.62.13,1.47.34,2.08.07.58-.26.39-.91.26-1.39-.19-.72-.35-1.45-.61-2.15-.85-2.22-2.51-3.99-4.7-4.91-1.46-.61-3.06-1.1-4.62-1.29Z"/>
  <path class="cls-1" d="M53.97,11.97c-.82.19-1.64.42-2.33.86.65.03,1.29.07,1.94.09l1.51.05c.5.01,1.01.02,1.5,0h0s.09.03.11.08c.01.06-.02.11-.08.12-.51.1-1.01.16-1.51.23l-1.51.17c-.99.11-1.99.2-2.98.29,0,.04-.01.08,0,.11.11.49,1.58.77,1.86.82,1.2.22,2.41.36,3.64.42,3.24.16,6.51-.07,9.74.32.71.09,1.39.24,2.05.49.09.04.18.07.27.07.09-.72-1.41-1.56-1.91-1.88-2.23-1.44-5.04-2.43-7.67-2.67-1.02-.09-2.05-.04-3.06.11-.53.08-1.05.18-1.57.31Z"/>
  <path class="cls-1" d="M37.6,37.86c.32.13,1.49-1.15,2-3.44.39-3.19.12-4.2.03-4.8-.06.14-.13.29-.2.43-.36.82-.7,1.65-1.03,2.48-.01.03-.05.05-.08.05-.04,0-.07-.05-.06-.09.14-.85.29-1.7.46-2.54-.6.35-1.33.9-1.59,1.67-.46,1.38,0,6,.47,6.25Z"/>
  <path class="cls-1" d="M31.2,22.72c-.09.24-.05.3.15.35,1.09.23,2.24.44,3.35.36,1.5-.11,1.85-1.62,2.65-2.62.43-.54.86-1.15,1.47-1.49.47-.26,1.71-.95.75-1.44-.24-.13-.71-.22-1.08-.38-.35.16-.7.32-1.05.48-.45.22-.89.44-1.31.71-.43.26-.84.55-1.26.83-.05.03-.11.02-.15-.02-.04-.05-.04-.12,0-.16h0c.37-.34.74-.69,1.14-1.01.39-.33.82-.63,1.24-.92.26-.17.51-.33.77-.5-.23-.44-.62-.91-.55-1.51,0,0-4.27,1.14-6.15,7.31Z"/>
  <path class="cls-1" d="M35.69,29.34c.11-.24.01-.49,0-.73l-.02-.18c-.1-1.08-.15-2.29.03-3.5-.06.06-.11.11-.17.17-.25.26-.48.54-.71.83-.23.29-.45.59-.66.9-.22.31-.41.62-.63.94-.03.04-.09.06-.14.04-.06-.02-.08-.09-.06-.15h0c.14-.34.28-.71.43-1.05.15-.35.31-.69.49-1.03.18-.34.36-.68.57-1.01.03-.06.08-.11.11-.17-.3.02-.58.03-.63.04-.72.07-1.55.02-2.18.43-.68.44-1.05,1.15-1.27,1.98-.26,1.01-.41,2.04-.56,3.07-.14.91-.25,1.92.29,2.73.66.99,4.02-2.04,4.47-2.54.21-.23.49-.48.63-.76Z"/>
  <path class="cls-1" d="M32.31,39.22c1.33-.28,3.11-1.04,3.75-2.32.01-.03.03-.06.04-.08.25-.58.23-1.31.23-1.93,0-.72-.06-1.44-.1-2.16,0-.09-.07-.92-.19-1.46-.14.18-.27.36-.4.56-.2.3-.39.62-.57.94-.18.32-.36.65-.52.98-.17.33-.32.67-.49,1.02-.02.05-.08.08-.13.06-.06-.01-.1-.08-.08-.14h0c.18-.73.37-1.47.61-2.19.12-.36.25-.72.4-1.08.01-.03.03-.06.04-.09-.68.45-1.33.93-1.96,1.46-.91.76-1.04,1.77-1.08,2.89-.02.37-.21,3.69.45,3.55Z"/>
  <path class="cls-1" d="M42.12,27.93c-.51.25-.98.62-1.3,1.06-.77,1.06-.2,2.7-.33,3.9-.06.58-.17,1.15-.26,1.71-.14.9-.25,1.8-.13,2.72.03.23.14,1.53.51,1.5,1-.07,2.72-1.94,3.19-2.43,1.02-1.06,1.11-2.57,1.09-4.01-.02-1.34-.24-2.87-1.07-3.98-.09-.12-.27-.32-.47-.49-.07.79-.18,1.57-.31,2.33-.15.89-.32,1.78-.52,2.65,0,.02-.02.04-.05.04-.03,0-.05-.02-.05-.05,0-.9-.04-1.79-.09-2.68-.05-.77-.11-1.54-.21-2.29Z"/>
  <path class="cls-1" d="M38.16,15.4c-.43.45.72,1.06.99,1.21.44.24.91.42,1.41.5.57.09,1.26.12,1.8-.11.46-.19.59-.63.87-.99.3-.38.66-.71,1-1.05.08-.07.17-.16.27-.24-.23-.1-.52-.15-.83-.18-.33-.04-.67-.05-1.02-.06-.69-.01-1.39,0-2.09.04-.05,0-.1-.03-.12-.08-.02-.06.02-.12.08-.14.68-.18,1.37-.34,2.06-.47.35-.07.7-.13,1.07-.16.24-.02.5-.04.77-.02-1.24-.57-3.62-1.03-6.28,1.76Z"/>
  <path class="cls-1" d="M40.61,19.12c-.06,0-.11,0-.17,0-.09,0-.18.03-.26.05-.81.25-1.39.95-1.96,1.54-2,2.04-2.11,4.78-1.81,7.47.08.74.1,1.94,1.19,1.42,1-.47,2.11-1.24,2.89-2.01.37-.37.83-.87,1.01-1.38.58-1.61.92-5.05.63-6.05-.09-.32-.3-.57-.56-.75-.61,1.2-1.17,2.45-1.7,3.71h0c-.02.05-.07.08-.13.07-.06-.01-.1-.07-.09-.13.15-.74.32-1.47.49-2.2.14-.58.29-1.16.46-1.74Z"/>
  <path class="cls-1" d="M52.69,18.09c-.79-.3-1.58-.57-2.38-.81-.4-.12-.82-.25-1.24-.41-.42-.16-.84-.39-1.22-.62h-.02s-.02-.03-.02-.03c-.04.09-.07.18-.1.27-.36,1.22.74,2.35,1.6,3.04,1.06.84,2.27,1.5,3.57,1.87,1.19.34,2.44.44,3.62.82,1.12.36,2.16.7,3.14,1.29.44.26.93.45,1.6.46.09,0,.33-.09.34-.14.2-.76-.63-2.7-1.09-3.58-.62-1.18-1.4-2.3-2.44-3.16-1.09-.9-2.45-1.25-3.84-1.35-1.13-.08-2.33-.17-3.29-.83-.68-.46-1.27-.59-1.96-.07-.09.07-.19.15-.28.24.02.02.04.03.06.06.28.29.55.54.87.77.31.23.67.45,1.03.67.72.44,1.44.9,2.13,1.4.03.02.04.06.03.09-.01.04-.06.06-.1.04Z"/>
  <path class="cls-1" d="M74.16,30.66s.13-.12.14-.15c.03-.11,0-.25-.01-.36-.05-.43-.32-1.29-1.2-3.16-.6-.98-1.46-1.95-2.43-2.56-2.02-1.28-4.5-1.59-6.84-1.35-.4.04-.79.13-1.15.31-.04.02-.07.04-.11.06,0,0,.01,0,.02,0h0c.45.19.92.39,1.38.6.45.21.9.43,1.34.67.88.47,1.74.98,2.51,1.62.04.03.05.08.03.13-.03.05-.09.07-.14.04h0c-.85-.46-1.77-.77-2.7-1.05-.46-.14-.93-.26-1.4-.37-.47-.11-.93-.2-1.41-.29-.04,0-.09-.02-.14-.04-.03-.01-.06-.03-.08-.04.05.45.27.92.5,1.32,2.64,4.55,11.76,4.84,11.71,4.62Z"/>
  <g>
    <path class="cls-1" d="M22.18,61.19v-1.58l-.77-.77.68-.68v-1.22l-.99-.99h-4.02l.23.72v4.87l-.23.72h4.02l1.08-1.08ZM19.02,57.4l.09-.09h.77l.27.14.14.27v.18l-.14.27-.27.13h-.77l-.09-.09v-.81ZM20.33,60.42l-.14.27-.36.18h-.68l-.14-.14v-.99l.09-.09h.72l.36.18.14.27v.32Z"/>
    <path class="cls-1" d="M30.21,61.41l-.63-1.71.81-.81v-1.76l-1.17-1.17h-3.92l.23.72v4.87l-.23.72h2.16l-.22-.72v-1.31l.09-.09h.5l.18.09.68,2.03h2.03l-.5-.86ZM28.63,58.17l-.18.36-.36.18h-.77l-.09-.09v-1.13l.09-.09h.77l.36.18.18.36v.23Z"/>
    <polygon class="cls-1" points="38.04 60.42 37.09 60.74 35.57 60.74 35.44 60.6 35.44 59.74 35.53 59.65 36.12 59.65 36.79 59.88 36.79 57.99 36.12 58.21 35.53 58.21 35.44 58.12 35.44 57.49 35.51 57.4 37.06 57.4 37.86 57.67 37.29 55.95 33.5 55.95 33.72 56.68 33.72 61.55 33.5 62.27 37.42 62.27 38.04 60.42"/>
    <polygon class="cls-1" points="45.99 62.27 47.62 56.68 47.98 55.96 45.99 55.96 46.08 56.68 45.54 58.66 45.5 59.02 45.45 58.66 44.69 55.96 43.33 55.96 42.57 58.66 42.52 59.02 42.48 58.66 41.93 56.68 42.02 55.96 39.86 55.96 40.22 56.68 41.85 62.27 42.93 62.27 43.87 58.98 43.92 58.66 43.96 58.98 44.91 62.27 45.99 62.27"/>
    <polygon class="cls-1" points="50.37 62.27 52.58 62.27 52.35 61.55 52.35 56.68 52.58 55.95 50.37 55.95 50.59 56.68 50.59 61.55 50.37 62.27"/>
    <polygon class="cls-1" points="59.61 62.27 60.83 62.27 60.83 56.68 61.06 55.96 59.12 55.96 59.34 56.68 59.34 58.62 59.39 59.07 59.21 58.62 57.63 55.96 55.69 55.96 55.96 56.68 55.96 61.55 55.74 62.27 57.72 62.27 57.49 61.55 57.49 58.93 57.45 58.48 57.63 58.93 59.61 62.27"/>
    <polygon class="cls-1" points="69.36 58.66 66.97 58.66 67.37 59.47 67.37 60.51 67.1 60.78 66.51 60.78 66.15 60.6 65.97 60.24 65.97 58.17 66.2 57.71 66.74 57.44 67.85 57.44 68.93 57.8 68.32 55.96 65.43 55.96 64.17 57.22 64.17 61.1 65.34 62.27 67.96 62.27 69.13 61.1 69.04 60.65 69.04 59.29 69.36 58.66"/>
    <polygon class="cls-1" points="80.58 61.69 80.85 61.14 80.85 60.68 79.38 59.95 79.38 60.41 79.06 60.73 78.7 60.73 78.33 60.55 78.14 60.18 78.14 58.16 78.37 57.7 78.92 57.43 79.55 57.43 80.65 57.79 80.03 55.91 77.55 55.91 76.26 57.2 76.26 61.05 77.55 62.34 79.93 62.34 80.58 61.69"/>
    <rect class="cls-1" x="82.79" y="61.42" width="2.29" height=".92"/>
    <path class="cls-1" d="M85.04,60.55l.87-.87v-2.89l-.87-.87h-2.2l-.87.87v2.89l.87.87h2.2ZM83.34,57.38l.14-.27.27-.14h.37l.28.14.14.27v1.65l-.14.28-.28.14h-.37l-.27-.14-.14-.28v-1.65Z"/>
    <polygon class="cls-1" points="20.52 67.49 20.52 65.11 19.84 65.11 19.84 66.02 17.64 66.02 17.64 65.11 16.97 65.11 16.97 67.49 17.64 67.49 17.64 66.56 19.84 66.56 19.84 67.49 20.52 67.49"/>
    <path class="cls-1" d="M22.51,67.03h2.12l.32.46h.78l-1.71-2.39h-.87l-1.71,2.39h.75l.32-.46ZM23.56,65.52l.71,1.02h-1.42l.71-1.02Z"/>
    <polygon class="cls-1" points="26.64 67.49 27.3 67.49 27.3 65.62 29.3 67.49 30.29 67.49 30.29 65.11 29.64 65.11 29.64 66.95 27.67 65.11 26.64 65.11 26.64 67.49"/>
    <path class="cls-1" d="M31.56,65.11v2.38h1.81c.85,0,1.21-.14,1.46-.4.19-.19.3-.48.3-.79s-.11-.6-.3-.79c-.25-.26-.61-.4-1.46-.4h-1.81ZM34.44,66.3c0,.2-.06.34-.16.43-.14.14-.37.22-.91.22h-1.14v-1.31h1.14c.55,0,.77.08.91.22.09.09.16.23.16.43Z"/>
    <path class="cls-1" d="M37.96,65.55c.63,0,1.17.14,1.52.31v-.6c-.29-.13-.8-.24-1.51-.24-.85,0-1.31.2-1.54.42-.21.21-.31.5-.31.86s.11.65.31.86c.23.22.69.42,1.54.42.71,0,1.22-.11,1.51-.24v-.57c-.35.16-.89.28-1.52.28-.52,0-.83-.11-.97-.25-.11-.11-.18-.25-.18-.5s.07-.38.18-.5c.14-.14.45-.25.97-.25Z"/>
    <path class="cls-1" d="M44.05,65.91c0-.19-.04-.39-.19-.54-.17-.17-.41-.26-1.13-.26h-2.07v2.38h.68v-.76h.85l1.15.76h.99s-1.2-.77-1.2-.77c.41-.03.6-.12.73-.25.16-.16.2-.37.2-.55ZM42.72,65.66c.35,0,.51.01.58.09.05.05.07.11.07.19,0,.07-.02.14-.07.18-.09.09-.27.11-.58.11h-1.39v-.57"/>
    <path class="cls-1" d="M45.95,67.03h2.12l.32.46h.78l-1.71-2.39h-.87l-1.71,2.39h.75l.32-.46ZM47.01,65.52l.71,1.02h-1.42"/>
    <polygon class="cls-1" points="53.21 65.65 53.21 65.11 50.09 65.11 50.09 67.49 50.76 67.49 50.76 66.65 53.16 66.65 53.16 66.15 50.76 66.15 50.76 65.65 53.21 65.65"/>
    <polygon class="cls-1" points="56.29 67.49 56.29 65.65 57.79 65.65 57.79 65.11 54.1 65.11 54.1 65.65 55.61 65.65 55.61 67.49 56.29 67.49"/>
    <polygon class="cls-1" points="62.05 65.65 62.05 65.11 58.85 65.11 58.85 67.49 62.05 67.49 62.05 66.95 59.51 66.95 59.51 66.54 61.99 66.54 61.99 66.03 59.51 66.03 59.51 65.65 62.05 65.65"/>
    <path class="cls-1" d="M63.26,65.11v2.38h1.81c.85,0,1.21-.14,1.46-.4.19-.19.3-.48.3-.79s-.11-.6-.3-.79c-.25-.26-.61-.4-1.46-.4h-1.81ZM66.14,66.3c0,.2-.06.34-.16.43-.14.14-.37.22-.91.22h-1.13v-1.31h1.13c.55,0,.77.08.91.22.09.09.16.23.16.43Z"/>
    <path class="cls-1" d="M69.61,67.49h.75l.32-.46h2.11l.32.46h.78l-1.71-2.39h-.87l-1.71,2.39ZM72.45,66.53h-1.43l.71-1.02.71,1.02Z"/>
    <polygon class="cls-1" points="74.81 65.11 74.81 67.49 77.84 67.49 77.84 66.94 75.49 66.94 75.49 65.11 74.81 65.11"/>
    <polygon class="cls-1" points="82.1 65.65 82.1 65.11 78.9 65.11 78.9 67.49 82.1 67.49 82.1 66.95 79.56 66.95 79.56 66.54 82.04 66.54 82.04 66.03 79.56 66.03 79.56 65.65 82.1 65.65"/>
    <path class="cls-1" d="M84.85,65.58c.52,0,1.15.11,1.51.27v-.56c-.32-.13-.92-.22-1.52-.22-.8,0-1.2.1-1.39.3-.15.15-.18.31-.18.49s.06.32.15.41c.2.2.63.29,1.5.31.82.02.91.06.96.12.03.03.04.06.04.1,0,.04,0,.07-.04.11-.1.1-.46.12-.97.12-.59,0-1.35-.15-1.7-.3v.56c.36.15,1.02.26,1.7.26.92,0,1.31-.14,1.49-.32.13-.13.17-.31.17-.49,0-.17-.05-.33-.15-.43-.19-.19-.58-.27-1.5-.29-.62-.01-.89-.03-.96-.11-.03-.03-.04-.06-.04-.11,0-.04.02-.08.04-.11.08-.07.32-.11.9-.11Z"/>
    <path class="cls-1" d="M19.46,49.61c.51-.17.62-.31.62-.83v-.47c0-.4-.22-.59-.62-.52-1.59.27-2.52,1.59-2.52,2.95s.95,2.71,3.11,2.53c1.12-.1,2.86-.63,4.1-3.84.21-.54.31-.81.52-1.35.13-.34.32-.47.67-.5.03,0,.05,0,.08,0,.4-.03.61-.18.74-.56.01-.03.02-.05.04-.08.12-.32,0-.5-.34-.47-.03,0-.05,0-.08,0-.32.02-.43-.13-.3-.43.33-.85.5-1.27.83-2.12.13-.35.32-.6.49-.79.39-.42.42-.54.26-1.01-.12-.34-.4-.46-.75-.36-.23.07-.46.17-.67.29-.44.27-.94.4-1.42.38-1.1-.05-2.33-.43-3.56-.32-1.99.17-2.86,1.48-2.86,2.78,0,1.49,1.16,2.13,2.3,2.03.55-.05,1-.26,1.31-.46.33-.21.41-.53.21-.83-.11-.16-.16-.23-.27-.39-.19-.29-.32-.31-.64-.13-.13.07-.29.13-.46.15-.33.03-.7-.11-.7-.57,0-.4.33-.84,1.18-.91.81-.07,1.88.21,2.95.32.33.03.42.2.3.51-.25.64-.38.96-.63,1.6-.13.34-.32.47-.67.5-.02,0-.04,0-.06,0-.39.03-.58.18-.73.54-.02.05-.03.07-.05.11-.12.33-.01.49.34.46.06,0,.09,0,.16-.01.25-.02.34.09.24.34-.06.15-.09.23-.15.39-.68,1.74-1.53,2.87-2.57,2.96-.44.04-1.06-.24-1.06-.94,0-.27.09-.75.68-.95Z"/>
    <path class="cls-1" d="M43.95,47.86c.24-.43-.47-.95-.73-.51-.87,1.5-1.65,2.3-2.21,2.32-.26,0-.51-.16.05-1.56.51-1.29.77-1.93,1.28-3.22.12-.31.29-.42.62-.43,0,0,.01,0,.02,0,.33,0,.5-.12.62-.43.04-.1.06-.15.1-.25.12-.28.01-.43-.28-.42-.01,0-.01,0-.02,0-.29,0-.4-.14-.28-.42.05-.13.08-.2.13-.33.15-.37.01-.57-.39-.56-.37,0-.55.01-.91.02-.45.01-.68.18-.85.59-.05.13-.08.2-.13.33-.13.31-.3.43-.64.44,0,0-.01,0-.02,0-.34.01-.51.14-.64.45-.03.09-.05.13-.08.22-.12.28-.01.44.29.43h.02c.3,0,.41.14.29.43-.42,1.06-.65,1.64-1.03,2.61-.87,1.49-1.41,2.17-1.69,2.18-.17,0-.44-.17.11-1.56.11-.28.16-.42.27-.7.11-.28.15-.47.15-.61,0-.77-1.1-1.35-1.77-1.75-.28-.17-.36-.4-.24-.71.14-.38.07-.56-.21-.71-.05-.02-.07-.03-.12-.06-.22-.1-.51-.06-.7.09-.39.31-.75.82-.75,1.3,0,.13.03.24.09.34.22.39.2.57,0,1.01-.24.52-.46.96-.63,1.28,0,0,0,0,0,0-.33.57-.71,1-1.12,1.26-.23.15-.37.04-.28-.22.19-.54.29-1.1.29-1.6,0-1.48-.86-2.4-2.51-2.3-2.71.16-3.87,2.71-3.87,4.37,0,1.45.87,2.44,2.57,2.33.95-.06,1.73-.43,2.31-.96.3-.28.42-.34.81-.41,1.04-.2,1.98-1.01,2.52-1.98,0,0,0,0,0,0,.25-.46.49-.92.74-1.5.13-.31.35-.34.57-.12.13.13.22.25.22.38,0,.06-.01.18-.11.43-.15.39-.23.58-.38.96-.86,2.21.28,2.84,1.22,2.8.8-.03,1.47-.53,2.07-1.25.14.79.75,1.14,1.53,1.12,1.6-.05,2.86-1.57,3.75-3.15ZM30.37,47.31c-.06.33-.16.44-.47.55-.45.16-.74.58-.74,1.04,0,.11.01.21.04.3.12.47-.19.92-.53.94-.34.02-.46-.31-.46-.59,0-.81.85-3.26,1.77-3.32.24-.01.46.14.46.58,0,.13-.03.31-.06.49Z"/>
    <path class="cls-1" d="M54.54,50.27c.87-2.16,1.3-3.23,2.16-5.38.1-.24.29-.52.49-.7.52-.48,1.03-.74,1.34-.73.17,0,.29.1.29.27,0,.25-.27.87-.56,1.61-.81,1.99-1.22,2.99-2.03,4.99-.49,1.22-.29,2.51,1.26,3.24.38.18.64.07.8-.3.03-.09.05-.14.08-.23.24-.59.22-.68-.16-1.21-.21-.29-.17-.65.02-1.12,1.01-2.47,1.51-3.7,2.52-6.17.29-.72.45-1.25.45-1.68,0-.7-.4-1.35-1.23-1.37-.57-.01-1.48.27-2.25.85-.24.18-.36.14-.47-.14-.17-.44-.56-.77-1.15-.78-.5,0-1.22.2-1.82.56-.33.2-.52.2-.88.02-.29-.17-.43-.25-.72-.42-.4-.22-.71-.25-1.14-.11-2.83.89-5.53,1.41-5.55,3.76,0,1.19.8,2.04,2.01,2.22.39.06.62-.13.62-.53v-.5c0-.49-.05-.57-.49-.77-.18-.08-.33-.24-.33-.52,0-.79,1.32-1.13,3.04-1.66.26-.08.39.05.28.3-1.04,2.59-1.56,3.88-2.6,6.48-.15.37-.01.57.39.57.36,0,.55,0,.91,0,.45,0,.68-.16.85-.57.88-2.19,1.32-3.29,2.2-5.48.1-.26.3-.52.51-.7.5-.42.97-.67,1.25-.67.18,0,.3.1.3.27,0,.25-.27.87-.56,1.61-.8,1.99-1.2,2.98-2.01,4.97-.15.36-.01.57.39.57.37,0,.55,0,.91,0,.45,0,.68-.15.85-.57Z"/>
    <path class="cls-1" d="M83.22,45.59c-.27-.08-.4-.12-.67-.2-.44-.13-.68-.03-.87.35-.47.9-1.07,2.02-1.44,2.64-.91,1.48-1.47,2.14-1.76,2.11-.17-.01-.44-.21.11-1.55.11-.27.16-.4.27-.67.11-.27.15-.45.15-.6,0-.77-1.1-1.48-1.77-1.95-.28-.2-.35-.44-.24-.73.14-.36.07-.55-.21-.73-.05-.03-.07-.04-.12-.07-.22-.12-.51-.12-.7.01-.39.27-.75.74-.75,1.21,0,.13.03.25.08.35.22.42.2.6,0,1.01-.24.49-.46.91-.63,1.21h0c-.85,1.48-2.17,2.11-3.44,2.05-.81-.04-1.14-.35-1.25-.64-.1-.24.06-.47.33-.43,2.18.31,3.08-.43,3.51-1.38.81-1.79-.55-2.73-1.98-2.81-2.15-.12-3.33,1.49-3.76,2.95-.74,1.22-1.4,1.96-2.27,2.49-.22.13-.34.02-.24-.22.78-1.89,1.17-2.83,1.95-4.71.15-.36.01-.57-.39-.59-.37-.02-.55-.02-.91-.04-.45-.02-.68.13-.85.54-.36.88-.54,1.31-.9,2.19-.11.24-.29.59-.43.8-.64.98-.95,1.32-1.29,1.31-.24,0-.41-.17.07-1.36.49-1.2.73-1.79,1.22-2.99.15-.36.01-.57-.39-.58-.37-.01-.55-.02-.91-.03-.45-.01-.68.14-.85.55-.44,1.09-.66,1.63-1.11,2.72-.91,2.23.01,3.15,1.02,3.17.56.02.98-.24,1.23-.45.11-.09.17-.05.11.11-.08.23-.25.38-.46.47-.31.14-.76.32-1.07.45-.59.26-1.4.85-1.4,1.75,0,.69.49,1.41,1.59,1.44,1.63.04,2.38-1.34,2.88-2.59.13-.33.31-.5.62-.65.96-.45,1.81-.99,2.65-2.01.22,1.04,1.09,1.74,2.65,1.82,2.45.13,3.97-1.37,4.8-2.77,0,0,0,0,0,0,.25-.43.49-.87.74-1.42.13-.29.35-.3.57-.06.13.14.22.27.22.4,0,.06-.01.18-.11.42-.15.37-.23.55-.38.92-.86,2.12.28,2.87,1.21,2.94,1.41.1,2.4-1.26,3.33-2.8.17-.28.39-.71.62-1.15.1-.19.21-.15.22.07.01.4.02.86.02,1.23,0,1.18-.24,1.49-.59,1.46-.18-.01-.28-.13-1.01.27-.31.17-.31.47,0,.69.34.24.89.49,1.71.56,2.04.17,3.32-1.16,4.19-2.68.23-.4-.48-1-.73-.59-.43.72-.8,1.2-1.25,1.6-.23.21-.33-.03-.33-.25,0-.68-.23-2.27-.07-3.79.05-.44-.1-.65-.53-.8ZM70.5,47.36c.25-.4.69-.92,1.22-.9.41.02.3.35.22.56-.18.45-.46.82-1.17.8-.29,0-.41-.23-.27-.46ZM62.31,52.61c-.33.67-.62.87-.83.86-.19,0-.32-.18-.32-.35,0-.32.45-.57.9-.78.24-.11.37.01.24.26Z"/>
  </g>
</svg>