<?xml version="1.0" encoding="UTF-8"?>
<svg id="Layer_1" data-name="Layer 1" xmlns="http://www.w3.org/2000/svg" viewBox="0 0 300 50.3">
  <defs>
    <style>
      .cls-1 {
        fill: #ccc;
      }
    </style>
  </defs>
  <polygon class="cls-1" points="71.62 33.88 62.11 12.33 58.08 12.33 58.08 38.01 60.76 38.01 60.69 15.18 70.68 38.01 72.52 38.01 82.48 15.18 82.41 38.01 85.11 38.01 85.11 12.33 81.09 12.33 71.62 33.88"/>
  <path class="cls-1" d="M106.35,23.26c-.9-2.12-3.64-4.44-7.63-4.44-5.69,0-9.68,4.37-9.68,9.85,0,5.14,3.61,9.85,9.68,9.85,3.33,0,6.18-1.56,7.63-4.37v3.85h2.57v-18.67h-2.57v3.92ZM105.79,31.59c-1.01,2.64-3.44,4.55-6.73,4.55-5.14,0-7.46-4.06-7.49-7.43v-.03c0-4.16,3.12-7.49,7.42-7.49,3.3,0,5.79,1.91,6.84,4.48.42.9.62,1.94.59,2.98,0,1.01-.21,2.05-.62,2.95Z"/>
  <path class="cls-1" d="M116.34,22.39v-3.05h-2.43v18.67h2.53v-10.17c0-4.23,2.01-6.49,5.62-6.49h.24v-2.53c-2.19.07-4.61.8-5.97,3.57Z"/>
  <polygon class="cls-1" points="139.28 19.34 136.12 19.34 127.72 27.01 127.72 12.33 125.15 12.33 125.15 38.01 127.72 38.01 127.72 28.08 136.67 38.01 139.69 38.01 130.29 27.53 139.28 19.34"/>
  <path class="cls-1" d="M149.82,18.82c-5.59,0-9.82,4.41-9.82,9.89,0,4.65,3.37,9.82,9.85,9.82,1.91,0,3.75-.52,5.31-1.53,1.6-1.01,2.91-2.53,3.78-4.55h-2.67c-1.21,2.43-3.54,3.85-6.42,3.85-3.16.03-7.15-2.22-7.29-6.9h17c.28-2.98-.76-5.86-2.91-7.95-1.77-1.7-4.2-2.64-6.84-2.64ZM142.61,27.35c.24-3.4,3.23-6.35,7.25-6.35,3.85-.1,7.01,3.09,7.18,6.35h-14.43Z"/>
  <polygon class="cls-1" points="167.21 12.33 164.68 12.33 164.68 19.34 161 19.34 161 21.39 164.68 21.39 164.68 38.01 167.21 38.01 167.21 21.39 171.3 21.39 171.3 19.34 167.21 19.34 167.21 12.33"/>
  <rect class="cls-1" x="174.11" y="12.33" width="2.57" height="3.57"/>
  <rect class="cls-1" x="174.11" y="19.34" width="2.57" height="18.67"/>
  <path class="cls-1" d="M191.01,18.82c-3.33-.07-5.86,1.42-6.94,3.85.03-1.25.03-2.29.03-3.33h-2.43v18.67h2.57v-10.55c0-3.89,2.22-6.21,6.07-6.25,4.2-.07,6,2.67,6,6.7v10.1h2.53v-10.62c0-4.55-2.05-8.5-7.84-8.57Z"/>
  <path class="cls-1" d="M219.95,23.19c-1.04-2.29-3.89-4.37-7.56-4.37-5.69,0-9.75,4.3-9.75,9.89s3.92,9.82,9.75,9.82c3.61,0,6.21-1.84,7.53-4.48v2.39c0,4.65-3.64,7.43-7.22,7.43-1.18,0-2.78-.38-4.13-1.35-1.11-.76-1.77-1.67-2.22-2.46h-2.95c1.18,3.37,4.58,6.04,9.23,6.04,2.53,0,5.24-1.08,7.08-2.88,1.63-1.56,2.78-3.82,2.78-7.36v-16.52h-2.53v3.85ZM217.93,33.98c-1.32,1.35-3.12,2.15-5.24,2.15-4.82,0-7.49-3.68-7.49-7.46v-.03c0-4.37,3.33-7.43,7.42-7.43,2.67,0,4.55,1.11,5.69,2.6,1.18,1.49,1.7,3.33,1.7,4.89-.04,2.05-.8,3.92-2.08,5.27Z"/>
  <path class="cls-1" d="M240.94,13.96c-1.6-1.21-3.3-1.63-6.91-1.63h-6.77v25.68h2.88v-10.1h4.13c3.33,0,5.07-.42,6.77-1.73,1.56-1.21,2.64-3.68,2.64-6.11s-1.04-4.79-2.74-6.11ZM239,24.3c-1.28.83-2.6,1.08-4.75,1.08h-4.09v-10.51h4.02c2.19,0,3.5.24,4.79,1.08,1.15.73,1.94,2.36,1.94,4.2s-.8,3.44-1.91,4.16Z"/>
  <path class="cls-1" d="M249.02,22.39v-3.05h-2.43v18.67h2.53v-10.17c0-4.23,2.01-6.49,5.62-6.49h.24v-2.53c-2.19.07-4.61.8-5.97,3.57Z"/>
  <path class="cls-1" d="M265.06,18.82c-6,0-9.89,4.61-9.89,9.82v.03c0,5.24,3.89,9.82,9.89,9.82s9.92-4.58,9.92-9.82-3.89-9.85-9.92-9.85ZM265.06,36.13c-4.13,0-7.36-3.19-7.36-7.43v-.03c0-4.27,3.23-7.46,7.36-7.46s7.36,3.19,7.36,7.46-3.19,7.46-7.36,7.46Z"/>
  <path class="cls-1" d="M279.28,17.81v1.53h-2.74v2.05h2.74v16.62h2.53v-16.62h4.02v-2.05h-4.02v-1.28c0-4.06,2.74-4.06,4.02-4.13v-2.05c-2.01,0-6.56.17-6.56,5.93Z"/>
  <path class="cls-1" d="M294.2,27.11c-2.26-.66-3.61-1.39-3.68-3.16-.07-1.63,1.18-3.02,3.23-3.02,1.87,0,3.19,1.11,3.19,3.09h2.53c-.17-3.78-3.09-5.2-5.69-5.2-3.16,0-5.83,1.98-5.83,5.34.07,2.95,2.15,4.02,4.82,4.82,3.23.94,4.61,1.8,4.68,3.92.03,1.91-1.46,3.5-3.61,3.5-1.87,0-3.78-1.15-3.89-3.71h-2.53c.03,3.92,3.37,5.83,6.38,5.83,3.54,0,6.32-2.5,6.18-5.93-.14-3.99-3.12-4.75-5.79-5.48Z"/>
  <path class="cls-1" d="M20.89,45.67c.62.13,1.25.23,1.89.3v-6.81c-.92-.05-1.59-.18-1.89-.24v6.74Z"/>
  <path class="cls-1" d="M12.37,32.79c-1.77-3.07-2.13-6.56-1.27-9.73h0s1.22-4.55,1.22-4.55l-4.46-1.2,3.94-1.15-3.41-3.58c-2.63,3.5-4.19,7.86-4.19,12.58,0,9.47,6.28,17.46,14.9,20.06v-6.8c-2.73-.99-5.15-2.91-6.72-5.62Z"/>
  <path class="cls-1" d="M38.56,41.25c4.61-3.84,7.55-9.63,7.55-16.1,0-.84-.06-1.67-.15-2.49l-13.39,11.55,5.99,7.04Z"/>
  <path class="cls-1" d="M27.59,38.49c-1.08.37-2.1.55-3.02.63v6.97c.19,0,.38.01.58.01,4.94,0,9.48-1.71,13.06-4.58l-10.62-3.04h0Z"/>
  <path class="cls-1" d="M25.15,4.19c-6.79,0-12.82,3.23-16.65,8.23l5.08,1.36v-.04c1.45-5.37,14.1-2.84,14.1-2.84,0,0-8.3,7.39-3.98,12.56l5.79,7.02,7.33-10.99h8.51c-2.47-8.83-10.57-15.3-20.18-15.3Z"/>
  <path class="cls-1" d="M25.15,0C11.28,0,0,11.28,0,25.15s11.28,25.15,25.15,25.15,25.15-11.28,25.15-25.15S39.02,0,25.15,0ZM25.15,48.8c-13.06,0-23.65-10.59-23.65-23.65S12.09,1.5,25.15,1.5s23.65,10.59,23.65,23.65-10.59,23.65-23.65,23.65Z"/>
  <path class="cls-1" d="M17.84,14.62c0-.54-.44-.97-.98-.97s-.98.44-.98.97.44.98.98.98.98-.44.98-.98Z"/>
</svg>