<?xml version="1.0" encoding="UTF-8"?>
<svg id="Layer_1" data-name="Layer 1" xmlns="http://www.w3.org/2000/svg" viewBox="0 0 300 32.26">
  <defs>
    <style>
      .cls-1 {
        fill: #ccc;
      }
    </style>
  </defs>
  <path class="cls-1" d="M300,8.07h-5.43l1.44-4.03h-8.86l-1.44,4.03h-5.43l-1.9,5.32h5.41l-6.71,18.87h8.88l6.71-18.87h5.41l1.91-5.32Z"/>
  <path class="cls-1" d="M205.72,0h-20.55c-2.18,0-4.59,1.8-5.37,4.03l-8.62,24.18c-.8,2.22.33,4.03,2.51,4.03h28.43l1.7-4.71h-17.96s-2.67-.01-2.67-.01c-1.37,0-2.25-1.19-1.97-2.55l2.85-8.01s.01-.03.01-.05l1.61-4.52,1.09-3.04c.39-1.11,1.6-2.01,2.69-2.01h10.71c1.09,0,1.65.9,1.26,2.01l-1.44,4.03h8.88l1.87-5.32c1.58-4.46-.67-8.07-5.02-8.07Z"/>
  <path class="cls-1" d="M276.31,4.06h3.44l1.43-4.02h-10.33c-2.17,0-4.58,1.8-5.36,4.02,0,.01,0,.03-.01.04l-1.41,3.98h-5.41l-1.88,5.3h5.41l-6.71,18.83h8.85l6.71-18.83h5.41l1.88-5.3h-5.41l.72-2.01c.39-1.11,1.6-2.01,2.68-2.01Z"/>
  <path class="cls-1" d="M253.05,8.07h-18.41l-1.92,5.32h11.52c1.09,0,1.65.9,1.26,2.01l-3.57,10.14c-.39,1.11-1.6,2.01-2.69,2.01h-7.05c-1.09,0-1.63-.89-1.26-1.98l.55-1.61c.41-1.1,1.6-1.98,2.68-1.98h7.35l1.57-4.35h-14.29c-2.18,0-4.6,1.85-5.39,4.07l-2.29,6.54c-.8,2.22.33,4.03,2.51,4.03h11.49c1.52,0,2.76-.61,5.14-2.01l-.72,2.01h8.86l7.18-20.14c.77-2.25-.34-4.06-2.52-4.06Z"/>
  <path class="cls-1" d="M124.51,8.07h-5.43l1.44-4.03h-8.88l-1.44,4.03h-5.41l-1.9,5.32h5.41l-6.71,18.87h8.88l6.71-18.87h5.41l1.91-5.32Z"/>
  <path class="cls-1" d="M49.51,0h-6.39c-1.54,0-2.47.17-3.58,1.49l-16,17.27L19.96,1.49c-.18-1.31-1.05-1.49-2.59-1.49h-5.92L0,32.25h8.84l5.02-14.11,3.19,14.11h3.91l13.57-14.19-5.05,14.19h8.59L49.55,0h-.04Z"/>
  <path class="cls-1" d="M130.09,8.07c-2.18,0-4.59,1.81-5.39,4.03l-5.74,16.13c-.8,2.22.33,4.03,2.51,4.03h23.79l1.69-4.72h-16.89c-1.09,0-1.65-.9-1.26-2.01l3.61-10.13c.39-1.11,1.61-2.01,2.69-2.01h5.92c1.09,0,1.65.9,1.26,2.01l-.76,2.19h-8.26l-1.52,4.35h17.14l2.05-5.82c1.58-4.46-.65-8.07-5.02-8.07h-15.83Z"/>
  <path class="cls-1" d="M169.37,8.08c-1.52,0-2.76.61-5.12,2.01l.72-2.01h-8.86l-8.6,24.16h8.86l6.01-16.84c.39-1.11,1.59-2.01,2.68-2.01h8.88l1.87-5.3h-6.43Z"/>
  <path class="cls-1" d="M73.94,8.07h-24.81l-1.92,5.32h17.91c1.09,0,1.65.9,1.25,2.01l-3.57,10.14c-.39,1.11-1.59,2.01-2.68,2.01h-7.05c-1.09,0-1.63-.89-1.26-1.98l.55-1.61c.41-1.1,1.6-1.98,2.68-1.98h7.35l1.57-4.35h-14.29c-2.18,0-4.6,1.85-5.39,4.07l-2.29,6.54c-.8,2.22.33,4.03,2.51,4.03h11.49c1.52,0,2.76-.61,5.14-2.01l-.72,2.01h8.88l7.16-20.14c.77-2.25-.35-4.06-2.52-4.06Z"/>
  <path class="cls-1" d="M101.11,22.93c0-3.08-2.12-5.29-5.52-5.29h-9.03c-.54,0-.82-.45-.63-1l-.03.08.81-2.46c.24-.49.78-.87,1.28-.87h12.97l1.9-5.32h-18.88c-2.17,0-4.58,1.8-5.37,4.03l-1.97,5.82c-.78,2.21.31,3.99,2.46,4.02h11.95c1.09,0,1.65.9,1.26,2.01l-.58,1.57c-.41,1.11-1.59,2.01-2.68,2.01h-15.94l-1.67,4.69h22.89c2.17,0,4.59-1.8,5.37-4.03.78-2.21,1.41-4.4,1.41-5.26Z"/>
  <path class="cls-1" d="M226.24,8.08c-1.52,0-2.76.61-5.12,2.01l.72-2.01h-8.86l-8.6,24.16h8.86l6.01-16.84c.39-1.11,1.6-2.01,2.68-2.01h8.88l1.87-5.3h-6.43Z"/>
</svg>