<?xml version="1.0" encoding="utf-8"?>
<!-- Generator: Adobe Illustrator 25.0.1, SVG Export Plug-In . SVG Version: 6.00 Build 0)  -->
<svg version="1.1" id="Layer_1" xmlns="http://www.w3.org/2000/svg" xmlns:xlink="http://www.w3.org/1999/xlink" x="0px" y="0px"
	 viewBox="0 0 50 50" style="enable-background:new 0 0 50 50;" xml:space="preserve">
<style type="text/css">
	.st0{fill:#F2F2F2;}
	.st1{fill-rule:evenodd;clip-rule:evenodd;fill:#F2F2F2;}
</style>
<path class="st0" d="M38.25,43.89h-26.5C9.68,43.89,8,42.34,8,40.44V27.56c0-1.91,1.68-3.46,3.75-3.46h4.3l0.27,0.57
	c1.19,2.54,4.76,4.31,8.68,4.31s7.49-1.77,8.68-4.31l0.27-0.57h4.3c2.07,0,3.75,1.55,3.75,3.46v12.88
	C42,42.34,40.32,43.89,38.25,43.89z M11.75,26.11c-0.95,0-1.75,0.67-1.75,1.46v12.88c0,0.79,0.8,1.46,1.75,1.46h26.5
	c0.95,0,1.75-0.67,1.75-1.46V27.56c0-0.79-0.8-1.46-1.75-1.46h-3.06c-1.74,2.95-5.73,4.89-10.19,4.89s-8.45-1.94-10.19-4.89H11.75z
	 M25,26.11c-4.96,0-9-4.04-9-9s4.04-9,9-9s9,4.04,9,9S29.96,26.11,25,26.11z M25,10.11c-3.86,0-7,3.14-7,7s3.14,7,7,7s7-3.14,7-7
	S28.86,10.11,25,10.11z"/>
</svg>
