<?xml version="1.0" encoding="UTF-8"?>
<svg id="Layer_1" xmlns="http://www.w3.org/2000/svg" version="1.1" viewBox="0 0 216 216">
  <!-- Generator: Adobe Illustrator 29.6.1, SVG Export Plug-In . SVG Version: 2.1.1 Build 9)  -->
  <defs>
    <style>
      .st0 {
        fill: #ff483c;
      }
    </style>
  </defs>
  <path class="st0" d="M144.7,174.1c-1.6-.4-3.2.6-3.6,2.2l-3,12c-.4,1.6.6,3.2,2.2,3.6.2,0,.5,0,.7,0,1.3,0,2.6-.9,2.9-2.3l3-12c.4-1.6-.6-3.2-2.2-3.6Z"/>
  <path class="st0" d="M108,114c.4,0,.8,0,1.2-.2l33-13.7c1.5-.6,2.3-2.4,1.6-3.9-.6-1.5-2.4-2.2-3.9-1.6l-31.8,13.2L24,73v-1c0-1.7-1.3-3-3-3s-3,1.3-3,3v3c0,1.2.7,2.3,1.9,2.8l87,36c.4.2.8.2,1.2.2Z"/>
  <path class="st0" d="M143.7,144.7c-.7-1.5-2.5-2.1-4-1.4-5.7,2.8-15.2,6.1-28.7,6.5v-26.9c0-1.7-1.3-3-3-3s-3,1.3-3,3v26.9c-37.2-1.2-49.3-23.8-51-27.5v-20.4c0-1.7-1.3-3-3-3s-3,1.3-3,3v21c0,.4,0,.8.2,1.1.5,1.3,13.3,31.9,59.8,31.9s27.6-3.9,34.3-7.2c1.5-.7,2.1-2.5,1.4-4Z"/>
  <path class="st0" d="M153,177c-1.7,0-3,1.3-3,3v9c0,1.7,1.3,3,3,3s3-1.3,3-3v-9c0-1.7-1.3-3-3-3Z"/>
  <path class="st0" d="M195,69c-1.7,0-3,1.3-3,3v1l-36,14.8v-5.4l40.1-16.6c1.1-.5,1.9-1.6,1.9-2.8s-.7-2.3-1.9-2.8L109.1,24.2c-.7-.3-1.6-.3-2.3,0L19.9,60.2c-1.1.5-1.9,1.5-1.9,2.8s.7,2.3,1.9,2.8l87,36c.4.2.8.2,1.2.2s.8,0,1.2-.2l31.5-13c1.5-.6,2.3-2.4,1.6-3.9-.6-1.5-2.4-2.2-3.9-1.6l-30.3,12.5L28.8,63,108,30.2l79.1,32.8-34.4,14.2-33-12.3c.2-.6.3-1.3.3-1.9,0-5-5.3-9-12-9s-12,4-12,9,5.3,9,12,9,5.7-.8,7.8-2.1l34.2,12.8v9.6h0v64.3c-3.5,1.2-6,4.5-6,8.4s4,9,9,9,9-4,9-9-2.5-7.2-6-8.4v-17c8.6-6.5,11.7-15.2,11.8-15.5.1-.3.2-.7.2-1v-21c0-1.7-1.3-3-3-3s-3,1.3-3,3v20.4c-.5,1.3-2.3,5.2-6,9.1v-37.2l40.1-16.5c1.1-.5,1.9-1.6,1.9-2.8v-3c0-1.7-1.3-3-3-3ZM108,66c-3.7,0-6-1.8-6-3s2.3-3,6-3,6,1.8,6,3-2.3,3-6,3ZM153,168c-1.7,0-3-1.4-3-3s1.3-3,3-3,3,1.4,3,3-1.3,3-3,3Z"/>
  <path class="st0" d="M164.9,176.3c-.4-1.6-2-2.6-3.6-2.2-1.6.4-2.6,2-2.2,3.6l3,12c.3,1.4,1.6,2.3,2.9,2.3s.5,0,.7,0c1.6-.4,2.6-2,2.2-3.6l-3-12Z"/>
</svg>