<?xml version="1.0" encoding="UTF-8"?>
<svg id="Layer_1" xmlns="http://www.w3.org/2000/svg" version="1.1" viewBox="0 0 216 216">
  <!-- Generator: Adobe Illustrator 29.6.1, SVG Export Plug-In . SVG Version: 2.1.1 Build 9)  -->
  <defs>
    <style>
      .st0 {
        fill: #ff483c;
      }
    </style>
  </defs>
  <path class="st0" d="M197.9,194.2l-8.6-34.2c-.1-.5-.4-1-.8-1.4l-51.1-51,7.3-7.3c1.9-2,4.7-3,7.4-2.8,21.6,2.5,41-13,43.5-34.6.6-4.9.2-9.9-1.1-14.6-.4-1.6-2.1-2.6-3.7-2.1-.5.1-1,.4-1.4.8l-21,21.1-17.8-3.6-3.6-17.8,21.1-21.1c1.2-1.2,1.2-3.1,0-4.3-.4-.4-.8-.6-1.4-.8-21-5.6-42.5,6.9-48.1,27.8-1.3,4.8-1.6,9.7-1.1,14.6.2,2.8-.8,5.5-2.8,7.4l-7.3,7.3L54.1,24.2c-8.3-8.3-21.6-8.3-29.9,0s-8.3,21.6,0,29.9l53.6,53.5-7.3,7.3c-1.9,2-4.7,3-7.4,2.8-21.6-2.5-41,13-43.5,34.6-.6,4.9-.2,9.9,1.1,14.6.4,1.6,2.1,2.6,3.7,2.1.5-.1,1-.4,1.4-.8l21.1-21.1,17.8,3.6,3.6,17.8-21.1,21.1c-1.2,1.2-1.2,3.1,0,4.3.4.4.8.6,1.3.8,21,5.6,42.5-6.9,48.1-27.8,1.3-4.8,1.6-9.7,1.1-14.6-.2-2.8.8-5.5,2.8-7.4l7.3-7.3,51,51.1c.4.4.9.7,1.4.8l34.2,8.6c.2,0,.5,0,.7,0,1.7,0,3-1.4,3-3,0-.2,0-.5,0-.7h0ZM175.4,187l-11.6-2.9v-11l7.1,1.4c1.6.3,3.2-.7,3.6-2.4,0-.4,0-.8,0-1.2l-1.4-7.1h11l2.9,11.6c-5.2,2.1-9.4,6.3-11.5,11.6h0ZM166.6,162.3l1.1,5.3-5.3-1.1L60.5,64.8l4.3-4.3,101.8,101.8ZM119.2,74.7c3.3-3.2,5-7.8,4.5-12.4-2.1-18.2,11-34.7,29.3-36.8,2.3-.3,4.6-.3,6.9,0l-18.1,18.1c-.7.7-1,1.7-.8,2.7l4.3,21.4c.2,1.2,1.2,2.1,2.4,2.4l21.4,4.3c1,.2,2-.1,2.7-.8l18.1-18.1c1.7,18.3-11.7,34.5-30,36.2-2.3.2-4.6.2-6.9,0-4.6-.4-9.1,1.2-12.4,4.5l-7.3,7.3-8.6-8.6c0,0,.1,0,.2-.1l12.1-12.1c1.2-1.2,1.1-3.1,0-4.3-1.2-1.1-3-1.1-4.2,0l-12.1,12.1c0,0,0,.1-.1.2l-8.6-8.6,7.3-7.3ZM73.3,52l105.8,105.8h-8.5L69.1,56.2l4.3-4.3ZM28.5,49.8c-5.9-5.9-6-15.4,0-21.4s15.4-6,21.4,0c0,0,0,0,0,0l6.4,6.4-21.4,21.4-6.4-6.4ZM39.1,60.5l21.4-21.4,8.5,8.5-21.4,21.4-8.5-8.5ZM96.1,140.6c-3.3,3.2-5,7.8-4.5,12.4,2.1,18.2-11,34.7-29.2,36.8-2.3.3-4.6.3-6.9,0l18.1-18.1c.7-.7,1-1.7.8-2.7l-4.3-21.4c-.2-1.2-1.2-2.1-2.4-2.4l-21.3-4.3c-1-.2-2,.1-2.7.8l-18.1,18.1c-1.7-18.3,11.7-34.5,30-36.2,2.3-.2,4.6-.2,6.9,0,4.6.4,9.2-1.2,12.4-4.5l7.3-7.3,8.6,8.6c0,0-.1,0-.2.1l-12.1,12.1c-1.2,1.2-1.2,3.1,0,4.3s3.1,1.2,4.3,0c0,0,0,0,0,0l12.1-12.1c0,0,0-.1.1-.2l8.6,8.6-7.3,7.3ZM52,73.3l4.3-4.3,101.6,101.6v8.5L52,73.3ZM181.4,188.5c1.4-3.1,3.9-5.6,7.1-7.1l2.4,9.4-9.4-2.4Z"/>
</svg>