<?xml version="1.0" encoding="UTF-8"?>
<svg id="Layer_1" xmlns="http://www.w3.org/2000/svg" version="1.1" viewBox="0 0 216 216">
  <!-- Generator: Adobe Illustrator 29.6.1, SVG Export Plug-In . SVG Version: 2.1.1 Build 9)  -->
  <defs>
    <style>
      .st0 {
        fill: #ff483c;
      }
    </style>
  </defs>
  <path class="st0" d="M187.1,27.8H28.9c-6,0-10.9,4.9-10.9,10.9v109.3c0,6,4.9,10.9,10.9,10.9h54.2v7.9c0,7.2-5.9,13.1-13.2,13.1h-11.9c-2.3,0-4.2,1.9-4.2,4.1s1.9,4.1,4.2,4.1h100c2.3,0,4.1-1.9,4.1-4.1s-1.9-4.1-4.1-4.1h-11.9c-7.2,0-13.1-5.9-13.1-13.1v-7.9h54.2c6,0,10.9-4.9,10.9-10.9V38.7c0-6-4.9-10.9-10.9-10.9ZM86.9,179.9c2.8-3.6,4.5-8.2,4.5-13.1v-7.9h33.2v7.9c0,4.9,1.7,9.5,4.5,13.1h-42.2ZM189.7,148c0,1.4-1.1,2.6-2.6,2.6H28.9c-1.4,0-2.6-1.1-2.6-2.6v-21.8h163.4v21.8ZM189.7,117.8H26.3V38.7c0-1.4,1.1-2.6,2.6-2.6h158.3c1.4,0,2.6,1.2,2.6,2.6v79.2h0Z"/>
  <circle class="st0" cx="108" cy="138.3" r="4.5"/>
  <path class="st0" d="M115.1,56.4c-1.6-1.6-4.2-1.6-5.9,0l-29.3,29.3c-1.6,1.6-1.6,4.2,0,5.9s1.9,1.2,2.9,1.2,2.1-.4,2.9-1.2l29.3-29.3c1.6-1.6,1.6-4.2,0-5.9Z"/>
  <path class="st0" d="M132.5,73.4c-1.6-1.6-4.2-1.6-5.9,0l-11.7,11.7c-1.6,1.6-1.6,4.2,0,5.9s1.9,1.2,2.9,1.2,2.1-.4,2.9-1.2l11.7-11.7c1.6-1.6,1.6-4.3,0-5.9Z"/>
</svg>